<svg xmlns="http://www.w3.org/2000/svg">
    <symbol id="ui-cursor" viewBox="0 0 20 20" fill="currentColor">
        <path fill-rule="evenodd" d="M6.672 1.911a1 1 0 1 0-1.932.518l.259.966a1 1 0 0 0 1.932-.518zM2.429 4.74a1 1 0 1 0-.517 1.932l.966.259a1 1 0 0 0 .517-1.932zm8.814-.569a1 1 0 0 0-1.415-1.414l-.707.707a1 1 0 1 0 1.415 1.415zm-7.071 7.072l.707-.707A1 1 0 0 0 3.465 9.12l-.708.707a1 1 0 0 0 1.415 1.415m3.2-5.171a1 1 0 0 0-1.3 1.3l4 10a1 1 0 0 0 1.823.075l1.38-2.759l3.018 3.02a1 1 0 0 0 1.414-1.415l-3.019-3.02l2.76-1.379a1 1 0 0 0-.076-1.822z" clip-rule="evenodd"/>
    </symbol>
    <symbol id="ui-move" viewBox="0 0 16 16" fill="currentColor">
        <path fill-rule="evenodd" d="M7.646.146a.5.5 0 0 1 .708 0l2 2a.5.5 0 0 1-.708.708L8.5 1.707V5.5a.5.5 0 0 1-1 0V1.707L6.354 2.854a.5.5 0 1 1-.708-.708zM8 10a.5.5 0 0 1 .5.5v3.793l1.146-1.147a.5.5 0 0 1 .708.708l-2 2a.5.5 0 0 1-.708 0l-2-2a.5.5 0 0 1 .708-.708L7.5 14.293V10.5A.5.5 0 0 1 8 10M.146 8.354a.5.5 0 0 1 0-.708l2-2a.5.5 0 1 1 .708.708L1.707 7.5H5.5a.5.5 0 0 1 0 1H1.707l1.147 1.146a.5.5 0 0 1-.708.708zM10 8a.5.5 0 0 1 .5-.5h3.793l-1.147-1.146a.5.5 0 0 1 .708-.708l2 2a.5.5 0 0 1 0 .708l-2 2a.5.5 0 0 1-.708-.708L14.293 8.5H10.5A.5.5 0 0 1 10 8"/>
    </symbol>
    <symbol id="ui-wall" viewBox="0 0 16 16" fill="currentColor">
        <path d="M0 .5A.5.5 0 0 1 .5 0h15a.5.5 0 0 1 .5.5v3a.5.5 0 0 1-.5.5H14v2h1.5a.5.5 0 0 1 .5.5v3a.5.5 0 0 1-.5.5H14v2h1.5a.5.5 0 0 1 .5.5v3a.5.5 0 0 1-.5.5H.5a.5.5 0 0 1-.5-.5v-3a.5.5 0 0 1 .5-.5H2v-2H.5a.5.5 0 0 1-.5-.5v-3A.5.5 0 0 1 .5 6H2V4H.5a.5.5 0 0 1-.5-.5zM3 4v2h4.5V4zm5.5 0v2H13V4zM3 10v2h4.5v-2zm5.5 0v2H13v-2zM1 1v2h3.5V1zm4.5 0v2h5V1zm6 0v2H15V1zM1 7v2h3.5V7zm4.5 0v2h5V7zm6 0v2H15V7zM1 13v2h3.5v-2zm4.5 0v2h5v-2zm6 0v2H15v-2z"/>
    </symbol>
    <symbol id="ui-sofa" viewBox="0 0 512 512" fill="currentColor">
        <path d="M448 242.025V152a48.055 48.055 0 0 0-48-48H112a48.055 48.055 0 0 0-48 48v90.025A64.115 64.115 0 0 0 16 304v112a32.036 32.036 0 0 0 32 32h16v48h32v-48h320v48h32v-48h16a32.036 32.036 0 0 0 32-32V304a64.115 64.115 0 0 0-48-61.975M112 416H48V304a32 32 0 0 1 64 0Zm256 0H144v-96h224Zm2.025-128h-228.05A64.243 64.243 0 0 0 96 242.025V152a16.019 16.019 0 0 1 16-16h288a16.019 16.019 0 0 1 16 16v90.025A64.243 64.243 0 0 0 370.025 288M464 416h-64V304a32 32 0 0 1 64 0l.02 112Z"/>
    </symbol>
    <symbol id="ui-undo" viewBox="0 0 20 20" fill="currentColor">
        <path d="M12 5H7V2L1 6l6 4V7h5c2.2 0 4 1.8 4 4s-1.8 4-4 4H7v2h5c3.3 0 6-2.7 6-6s-2.7-6-6-6"/>
    </symbol>
    <symbol id="ui-trash" viewBox="0 0 56 56" fill="currentColor">
        <path d="m44.524 48.66l1.617-34.265h2.343c.961 0 1.735-.797 1.735-1.758s-.774-1.782-1.735-1.782H38.242V7.34c0-3.352-2.273-5.531-5.882-5.531h-8.766c-3.61 0-5.86 2.18-5.86 5.53v3.516H7.54c-.937 0-1.758.82-1.758 1.782c0 .96.82 1.758 1.758 1.758h2.344L11.5 48.684c.164 3.375 2.39 5.507 5.766 5.507h21.492c3.351 0 5.601-2.156 5.765-5.53M21.484 7.574c0-1.336.985-2.273 2.391-2.273h8.227c1.43 0 2.414.937 2.414 2.273v3.281H21.484Zm-3.867 43.102c-1.36 0-2.367-1.032-2.437-2.39l-1.64-33.891h28.85l-1.546 33.89c-.07 1.383-1.055 2.39-2.438 2.39Zm17.344-4.125c.773 0 1.36-.633 1.383-1.524l.703-24.75c.023-.89-.586-1.547-1.383-1.547c-.726 0-1.336.68-1.36 1.524l-.702 24.773c-.024.844.562 1.524 1.359 1.524m-13.898 0c.797 0 1.382-.68 1.359-1.524l-.703-24.773c-.024-.844-.656-1.524-1.383-1.524c-.797 0-1.383.657-1.36 1.547l.727 24.75c.024.891.586 1.524 1.36 1.524m8.367-1.524V20.254c0-.844-.633-1.524-1.407-1.524c-.773 0-1.43.68-1.43 1.524v24.773c0 .844.657 1.524 1.43 1.524c.75 0 1.407-.68 1.407-1.524"/>
    </symbol>
    <symbol id="ui-zoom-in" viewBox="0 0 16 16" fill="currentColor">
        <path fill-rule="evenodd" d="M6.5 12a5.5 5.5 0 1 0 0-11a5.5 5.5 0 0 0 0 11M13 6.5a6.5 6.5 0 1 1-13 0a6.5 6.5 0 0 1 13 0"/>
        <path d="M10.344 11.742q.044.06.098.115l3.85 3.85a1 1 0 0 0 1.415-1.414l-3.85-3.85a1 1 0 0 0-.115-.1a6.5 6.5 0 0 1-1.398 1.4z"/>
        <path fill-rule="evenodd" d="M6.5 3a.5.5 0 0 1 .5.5V6h2.5a.5.5 0 0 1 0 1H7v2.5a.5.5 0 0 1-1 0V7H3.5a.5.5 0 0 1 0-1H6V3.5a.5.5 0 0 1 .5-.5"/>
    </symbol>
    <symbol id="ui-zoom-out" viewBox="0 0 16 16" fill="currentColor">
        <path fill-rule="evenodd" d="M6.5 12a5.5 5.5 0 1 0 0-11a5.5 5.5 0 0 0 0 11M13 6.5a6.5 6.5 0 1 1-13 0a6.5 6.5 0 0 1 13 0"/>
        <path d="M10.344 11.742q.044.06.098.115l3.85 3.85a1 1 0 0 0 1.415-1.414l-3.85-3.85a1 1 0 0 0-.115-.1a6.5 6.5 0 0 1-1.398 1.4z"/>
        <path fill-rule="evenodd" d="M3 6.5a.5.5 0 0 1 .5-.5h6a.5.5 0 0 1 0 1h-6a.5.5 0 0 1-.5-.5"/>
    </symbol>
    <symbol id="ui-zoom-centred" viewBox="0 0 20 20" fill="currentColor">
        <path d="M7 2H2v5l1.8-1.8L6.5 8L8 6.5L5.2 3.8zm6 0l1.8 1.8L12 6.5L13.5 8l2.7-2.7L18 7V2zm.5 10L12 13.5l2.7 2.7L13 18h5v-5l-1.8 1.8zm-7 0l-2.7 2.7L2 13v5h5l-1.8-1.8L8 13.5z"/>
    </symbol>
    <symbol id="ui-door" viewBox="0 0 16 16" fill="currentColor">
        <path d="M3 2a1 1 0 0 1 1-1h8a1 1 0 0 1 1 1v13h1.5a.5.5 0 0 1 0 1h-13a.5.5 0 0 1 0-1H3zm1 13h8V2H4z"/>
        <path d="M9 9a1 1 0 1 0 2 0a1 1 0 0 0-2 0"/>
    </symbol>
    <symbol id="ui-menu" viewBox="0 0 512 512">
        <path d="M299.3 376c6.2-14.1 20.3-24 36.7-24s30.5 9.9 36.7 24H448c8.8 0 16 7.2 16 16s-7.2 16-16 16h-75.3c-6.2 14.1-20.3 24-36.7 24s-30.5-9.9-36.7-24H64c-8.8 0-16-7.2-16-16s7.2-16 16-16h235.3z" />
        <path d="M139.3 240c6.2-14.1 20.3-24 36.7-24s30.5 9.9 36.7 24H448c8.8 0 16 7.2 16 16s-7.2 16-16 16H212.7c-6.2 14.1-20.3 24-36.7 24s-30.5-9.9-36.7-24H64c-8.8 0-16-7.2-16-16s7.2-16 16-16h75.3z" />
        <path d="M299.3 104c6.2-14.1 20.3-24 36.7-24s30.5 9.9 36.7 24H448c8.8 0 16 7.2 16 16s-7.2 16-16 16h-75.3c-6.2 14.1-20.3 24-36.7 24s-30.5-9.9-36.7-24H64c-8.8 0-16-7.2-16-16s7.2-16 16-16h235.3z" />
    </symbol>
</svg>