
<!-- Creator: CorelDRAW (Версия для OEM) -->
<svg xmlns="http://www.w3.org/2000/svg" xml:space="preserve" width="76px" height="64px" version="1.1" style="shape-rendering:geometricPrecision; text-rendering:geometricPrecision; image-rendering:optimizeQuality; fill-rule:evenodd; clip-rule:evenodd"
viewBox="0 0 76 64"
 xmlns:xlink="http://www.w3.org/1999/xlink"
 xmlns:xodm="http://www.corel.com/coreldraw/odm/2003">
 <defs>
  <style type="text/css">
   <![CDATA[
    .str0 {stroke:#64401F;stroke-width:1;stroke-miterlimit:10}
    .str1 {stroke:#64401F;stroke-width:1;stroke-miterlimit:10}
    .str2 {stroke:#64401F;stroke-width:1;stroke-miterlimit:10}
    .fil1 {fill:none;fill-rule:nonzero}
    .fil0 {fill:white}
   ]]>
  </style>
 </defs>
 <g id="Слой_x0020_1">
  <metadata id="CorelCorpID_0Corel-Layer"/>
  <rect class="fil0" x="0.559" y="0.626" width="74.56" height="62.56"/>
  <path class="fil1 str0" d="M4.916 17.695c-1.054,4.332 -1.589,8.775 -1.589,13.238 0,6.033 0.977,12.026 2.884,17.75"/>
  <path class="fil1 str0" d="M13.013 58.517c-0.365,-0.138 -0.754,-0.211 -1.142,-0.211 -0.427,0 -0.85,0.084 -1.238,0.249"/>
  <path class="fil1 str0" d="M9.537 57.297c2.496,1.158 5.218,1.759 7.97,1.759 1.434,0 2.864,-0.166 4.261,-0.485"/>
  <path class="fil1 str0" d="M5.616 58.494c0.811,0.365 1.687,0.554 2.571,0.554 0.842,0 1.673,-0.17 2.442,-0.493"/>
  <path class="fil1 str0" d="M5.619 58.494c-0.396,-0.173 -0.827,-0.269 -1.257,-0.269 -0.388,0 -0.773,0.076 -1.131,0.219"/>
  <path class="fil1 str0" d="M18.734 4.311c-1.576,-0.269 -3.172,-0.403 -4.767,-0.403 -2.369,0 -4.726,0.296 -7.018,0.876"/>
  <path class="fil1 str0" d="M16.42 20.146c0.003,-0.135 0.007,-0.277 0.007,-0.412 0,-2.9 -1.158,-5.685 -3.206,-7.74"/>
  <path class="fil1 str0" d="M18.991 29.14c1.689,-3.5 2.569,-7.34 2.569,-11.225 0,-1.316 -0.104,-2.628 -0.303,-3.928"/>
  <path class="fil1 str0" d="M23.329 4.457c-1.457,-0.099 -2.923,-0.146 -4.388,-0.146 -0.069,0 -0.138,0 -0.207,0"/>
  <path class="fil1 str0" d="M23.329 4.454c-1.462,2.192 -2.242,4.771 -2.242,7.405 0,0.713 0.057,1.428 0.17,2.132"/>
  <path class="fil1 str0" d="M3.285 3.857c-0.204,2.086 -0.303,4.182 -0.303,6.279 0,3.709 0.318,7.409 0.945,11.065"/>
  <path class="fil1 str0" d="M9.744 4.223c-0.592,-0.131 -1.199,-0.2 -1.803,-0.2 -0.726,0 -1.449,0.096 -2.153,0.288"/>
  <path class="fil1 str0" d="M3.285 3.857c0.503,0.358 1.107,0.554 1.727,0.554 0.261,0 0.523,-0.035 0.776,-0.103"/>
  <path class="fil1 str0" d="M4.558 42.594c-1.315,2.619 -1.999,5.516 -1.999,8.447 0,1.689 0.227,3.371 0.672,4.995"/>
  <path class="fil1 str0" d="M13.863 48.945c0.285,-1.689 0.426,-3.4 0.426,-5.113 0,-3.101 -0.469,-6.182 -1.384,-9.14"/>
  <path class="fil1 str0" d="M20.202 45.799c1.015,-3.244 1.531,-6.629 1.531,-10.03 0,-3.401 -0.516,-6.787 -1.531,-10.029"/>
  <path class="fil1 str0" d="M21.184 42.832c-0.324,1.866 -0.486,3.759 -0.486,5.655 0,2.713 0.335,5.417 0.992,8.045"/>
  <line class="fil1 str0" x1="75.279" y1="63.348" x2="75.279" y2= "0.582" />
  <path class="fil1 str0" d="M41.127 2.73c-5.491,14.458 -10.323,29.158 -14.476,44.056"/>
  <path class="fil1 str0" d="M30.53 2.95c-3.922,19.262 -7.044,38.682 -9.343,58.205"/>
  <line class="fil1 str0" x1="73.433" y1="63.348" x2="73.433" y2= "0.582" />
  <line class="fil1 str0" x1="0.513" y1="63.348" x2="0.513" y2= "0.582" />
  <line class="fil1 str0" x1="1.436" y1="63.348" x2="1.436" y2= "0.582" />
  <line class="fil1 str0" x1="0.513" y1="63.348" x2="75.279" y2= "63.348" />
  <path class="fil1 str0" d="M22.275 61.814c1.622,0.069 3.245,0.103 4.867,0.103 6.16,0 12.312,-0.511 18.391,-1.527"/>
  <path class="fil1 str0" d="M35.548 61.54c5.163,0.385 10.343,0.581 15.526,0.581 3.875,0 7.759,-0.108 11.63,-0.327"/>
  <path class="fil1 str0" d="M43.268 46.313c-8.009,3.633 -15.164,8.915 -20.993,15.496"/>
  <path class="fil1 str0" d="M52.554 61.205c4.287,0.413 8.59,0.62 12.896,0.62 1.902,0 3.806,-0.042 5.71,-0.122"/>
  <path class="fil1 str0" d="M73.016 51.369c0.035,-1.166 0.055,-2.336 0.055,-3.504 0,-6.541 -0.543,-13.077 -1.619,-19.528"/>
  <path class="fil1 str0" d="M71.16 61.703c1.025,0 1.856,-0.836 1.856,-1.859"/>
  <path class="fil1 str0" d="M14.309 61.814c-3.546,-0.073 -7.094,-0.111 -10.644,-0.111 -0.265,0 -0.534,0 -0.804,0"/>
  <path class="fil1 str0" d="M22.275 61.809c3.718,-10.81 6.613,-21.893 8.651,-33.146"/>
  <path class="fil1 str0" d="M32.064 46.456c-3.161,3.913 -5.944,8.125 -8.297,12.572"/>
  <path class="fil1 str0" d="M22.275 61.814c3.533,-0.893 6.963,-2.162 10.227,-3.774"/>
  <path class="fil1 str0" d="M14.309 61.809c0.549,0.047 1.099,0.074 1.649,0.074 1.764,0 3.526,-0.246 5.226,-0.728"/>
  <path class="fil1 str0" d="M21.118 62.11c0.569,-0.238 0.946,-0.8 0.946,-1.424 0,-0.038 -0.004,-0.08 -0.008,-0.118"/>
  <path class="fil1 str0" d="M19.419 61.567c0.192,0.655 0.796,1.105 1.476,1.105 0.584,0 1.123,-0.335 1.38,-0.863"/>
  <path class="fil1 str0" d="M19.829 61.487c0.147,0.176 0.366,0.284 0.597,0.284 0.365,0 0.685,-0.261 0.758,-0.616"/>
  <path class="fil1 str0" d="M1.378 60.959c0.35,0.466 0.899,0.744 1.483,0.744"/>
  <line class="fil1 str0" x1="42.05" y1="1.504" x2="38.358" y2= "1.504" />
  <line class="fil1 str0" x1="0.513" y1="0.582" x2="75.279" y2= "0.582" />
  <path class="fil1 str0" d="M38.251 0.949c-0.078,-0.003 -0.158,-0.008 -0.239,-0.008 -0.884,0 -1.745,0.297 -2.449,0.839"/>
  <path class="fil1 str0" d="M38.424 0.949c-0.977,-0.227 -1.981,-0.342 -2.984,-0.342 -0.992,0 -1.98,0.112 -2.941,0.334"/>
  <path class="fil1 str0" d="M39.696 2.192c-1.365,2.189 -2.364,4.59 -2.949,7.098"/>
  <path class="fil1 str0" d="M71.16 1.877c-1.766,-0.166 -3.538,-0.247 -5.311,-0.247 -3.752,0 -7.497,0.37 -11.173,1.108"/>
  <path class="fil1 str0" d="M73.016 3.734c0,-1.023 -0.831,-1.857 -1.856,-1.857"/>
  <path class="fil1 str0" d="M60.948 1.88c-2.488,-0.212 -4.988,-0.315 -7.482,-0.315 -4.077,0 -8.149,0.28 -12.186,0.838"/>
  <path class="fil1 str0" d="M50.616 2.876c0.538,0.07 1.08,0.104 1.622,0.104 0.816,0 1.634,-0.081 2.438,-0.242"/>
  <line class="fil1 str1" x1="43.374" y1="1.527" x2="45.22" y2= "2.45" />
  <path class="fil1 str0" d="M42.061 1.064c-0.204,-0.076 -0.423,-0.115 -0.642,-0.115"/>
  <path class="fil1 str0" d="M43.522 1.6c-0.204,-0.073 -0.423,-0.112 -0.642,-0.112 -0.789,0 -1.492,0.496 -1.753,1.242"/>
  <path class="fil1 str0" d="M42.061 1.064c-0.204,-0.076 -0.423,-0.115 -0.642,-0.115"/>
  <path class="fil1 str0" d="M41.146 1.384c-0.007,0 -0.019,0 -0.031,0 -0.58,0 -1.122,0.307 -1.419,0.808"/>
  <line class="fil1 str2" x1="25.906" y1="1.891" x2="2.831" y2= "1.891" />
  <path class="fil1 str0" d="M31.826 2.554c-0.458,0.989 -0.73,2.054 -0.8,3.143"/>
  <path class="fil1 str0" d="M32.499 0.938c-0.997,0.227 -1.765,1.015 -1.969,2.012"/>
  <path class="fil1 str0" d="M34.425 1.192c-1.011,0.081 -1.953,0.572 -2.599,1.362"/>
  <path class="fil1 str0" d="M30.676 2.473c-1.622,-0.374 -3.287,-0.578 -4.952,-0.596"/>
  <path class="fil1 str0" d="M2.861 1.877c-0.584,0 -1.133,0.277 -1.483,0.742"/>
  <path class="fil1 str0" d="M3.231 58.444c0.112,-0.389 0.166,-0.797 0.166,-1.205 0,-0.403 -0.054,-0.811 -0.166,-1.203"/>
 </g>
</svg>
