<svg xmlns="http://www.w3.org/2000/svg">

    <!-- Creator: CorelDRAW (Версия для OEM) -->
    <symbol xmlns="http://www.w3.org/2000/svg" xml:space="preserve" id='bed-big'
        version="1.1"
        style="shape-rendering:geometricPrecision; text-rendering:geometricPrecision; image-rendering:optimizeQuality; fill-rule:evenodd; clip-rule:evenodd"
        viewBox="0 0 76 64"
        xmlns:xlink="http://www.w3.org/1999/xlink"
        xmlns:xodm="http://www.corel.com/coreldraw/odm/2003">
         <defs>
  <style type="text/css">
   <![CDATA[
    .str0 {stroke:#64401F;stroke-width:1;stroke-miterlimit:10}
    .str1 {stroke:#64401F;stroke-width:1;stroke-miterlimit:10}
    .str2 {stroke:#64401F;stroke-width:1;stroke-miterlimit:10}
    .fil1 {fill:none;fill-rule:nonzero}
    .fil0 {fill:white}
   ]]>
  </style>
 </defs>

 <g id="Слой_x0020_1">
  <metadata id="CorelCorpID_0Corel-Layer"/>
  <rect class="fil0" x="0.559" y="0.626"/>
  <path class="fil1 str0" d="M4.916 17.695c-1.054,4.332 -1.589,8.775 -1.589,13.238 0,6.033 0.977,12.026 2.884,17.75"/>
  <path class="fil1 str0" d="M13.013 58.517c-0.365,-0.138 -0.754,-0.211 -1.142,-0.211 -0.427,0 -0.85,0.084 -1.238,0.249"/>
  <path class="fil1 str0" d="M9.537 57.297c2.496,1.158 5.218,1.759 7.97,1.759 1.434,0 2.864,-0.166 4.261,-0.485"/>
  <path class="fil1 str0" d="M5.616 58.494c0.811,0.365 1.687,0.554 2.571,0.554 0.842,0 1.673,-0.17 2.442,-0.493"/>
  <path class="fil1 str0" d="M5.619 58.494c-0.396,-0.173 -0.827,-0.269 -1.257,-0.269 -0.388,0 -0.773,0.076 -1.131,0.219"/>
  <path class="fil1 str0" d="M18.734 4.311c-1.576,-0.269 -3.172,-0.403 -4.767,-0.403 -2.369,0 -4.726,0.296 -7.018,0.876"/>
  <path class="fil1 str0" d="M16.42 20.146c0.003,-0.135 0.007,-0.277 0.007,-0.412 0,-2.9 -1.158,-5.685 -3.206,-7.74"/>
  <path class="fil1 str0" d="M18.991 29.14c1.689,-3.5 2.569,-7.34 2.569,-11.225 0,-1.316 -0.104,-2.628 -0.303,-3.928"/>
  <path class="fil1 str0" d="M23.329 4.457c-1.457,-0.099 -2.923,-0.146 -4.388,-0.146 -0.069,0 -0.138,0 -0.207,0"/>
  <path class="fil1 str0" d="M23.329 4.454c-1.462,2.192 -2.242,4.771 -2.242,7.405 0,0.713 0.057,1.428 0.17,2.132"/>
  <path class="fil1 str0" d="M3.285 3.857c-0.204,2.086 -0.303,4.182 -0.303,6.279 0,3.709 0.318,7.409 0.945,11.065"/>
  <path class="fil1 str0" d="M9.744 4.223c-0.592,-0.131 -1.199,-0.2 -1.803,-0.2 -0.726,0 -1.449,0.096 -2.153,0.288"/>
  <path class="fil1 str0" d="M3.285 3.857c0.503,0.358 1.107,0.554 1.727,0.554 0.261,0 0.523,-0.035 0.776,-0.103"/>
  <path class="fil1 str0" d="M4.558 42.594c-1.315,2.619 -1.999,5.516 -1.999,8.447 0,1.689 0.227,3.371 0.672,4.995"/>
  <path class="fil1 str0" d="M13.863 48.945c0.285,-1.689 0.426,-3.4 0.426,-5.113 0,-3.101 -0.469,-6.182 -1.384,-9.14"/>
  <path class="fil1 str0" d="M20.202 45.799c1.015,-3.244 1.531,-6.629 1.531,-10.03 0,-3.401 -0.516,-6.787 -1.531,-10.029"/>
  <path class="fil1 str0" d="M21.184 42.832c-0.324,1.866 -0.486,3.759 -0.486,5.655 0,2.713 0.335,5.417 0.992,8.045"/>
  <line class="fil1 str0" x1="75.279" y1="63.348" x2="75.279" y2= "0.582" />
  <path class="fil1 str0" d="M41.127 2.73c-5.491,14.458 -10.323,29.158 -14.476,44.056"/>
  <path class="fil1 str0" d="M30.53 2.95c-3.922,19.262 -7.044,38.682 -9.343,58.205"/>
  <line class="fil1 str0" x1="73.433" y1="63.348" x2="73.433" y2= "0.582" />
  <line class="fil1 str0" x1="0.513" y1="63.348" x2="0.513" y2= "0.582" />
  <line class="fil1 str0" x1="1.436" y1="63.348" x2="1.436" y2= "0.582" />
  <line class="fil1 str0" x1="0.513" y1="63.348" x2="75.279" y2= "63.348" />
  <path class="fil1 str0" d="M22.275 61.814c1.622,0.069 3.245,0.103 4.867,0.103 6.16,0 12.312,-0.511 18.391,-1.527"/>
  <path class="fil1 str0" d="M35.548 61.54c5.163,0.385 10.343,0.581 15.526,0.581 3.875,0 7.759,-0.108 11.63,-0.327"/>
  <path class="fil1 str0" d="M43.268 46.313c-8.009,3.633 -15.164,8.915 -20.993,15.496"/>
  <path class="fil1 str0" d="M52.554 61.205c4.287,0.413 8.59,0.62 12.896,0.62 1.902,0 3.806,-0.042 5.71,-0.122"/>
  <path class="fil1 str0" d="M73.016 51.369c0.035,-1.166 0.055,-2.336 0.055,-3.504 0,-6.541 -0.543,-13.077 -1.619,-19.528"/>
  <path class="fil1 str0" d="M71.16 61.703c1.025,0 1.856,-0.836 1.856,-1.859"/>
  <path class="fil1 str0" d="M14.309 61.814c-3.546,-0.073 -7.094,-0.111 -10.644,-0.111 -0.265,0 -0.534,0 -0.804,0"/>
  <path class="fil1 str0" d="M22.275 61.809c3.718,-10.81 6.613,-21.893 8.651,-33.146"/>
  <path class="fil1 str0" d="M32.064 46.456c-3.161,3.913 -5.944,8.125 -8.297,12.572"/>
  <path class="fil1 str0" d="M22.275 61.814c3.533,-0.893 6.963,-2.162 10.227,-3.774"/>
  <path class="fil1 str0" d="M14.309 61.809c0.549,0.047 1.099,0.074 1.649,0.074 1.764,0 3.526,-0.246 5.226,-0.728"/>
  <path class="fil1 str0" d="M21.118 62.11c0.569,-0.238 0.946,-0.8 0.946,-1.424 0,-0.038 -0.004,-0.08 -0.008,-0.118"/>
  <path class="fil1 str0" d="M19.419 61.567c0.192,0.655 0.796,1.105 1.476,1.105 0.584,0 1.123,-0.335 1.38,-0.863"/>
  <path class="fil1 str0" d="M19.829 61.487c0.147,0.176 0.366,0.284 0.597,0.284 0.365,0 0.685,-0.261 0.758,-0.616"/>
  <path class="fil1 str0" d="M1.378 60.959c0.35,0.466 0.899,0.744 1.483,0.744"/>
  <line class="fil1 str0" x1="42.05" y1="1.504" x2="38.358" y2= "1.504" />
  <line class="fil1 str0" x1="0.513" y1="0.582" x2="75.279" y2= "0.582" />
  <path class="fil1 str0" d="M38.251 0.949c-0.078,-0.003 -0.158,-0.008 -0.239,-0.008 -0.884,0 -1.745,0.297 -2.449,0.839"/>
  <path class="fil1 str0" d="M38.424 0.949c-0.977,-0.227 -1.981,-0.342 -2.984,-0.342 -0.992,0 -1.98,0.112 -2.941,0.334"/>
  <path class="fil1 str0" d="M39.696 2.192c-1.365,2.189 -2.364,4.59 -2.949,7.098"/>
  <path class="fil1 str0" d="M71.16 1.877c-1.766,-0.166 -3.538,-0.247 -5.311,-0.247 -3.752,0 -7.497,0.37 -11.173,1.108"/>
  <path class="fil1 str0" d="M73.016 3.734c0,-1.023 -0.831,-1.857 -1.856,-1.857"/>
  <path class="fil1 str0" d="M60.948 1.88c-2.488,-0.212 -4.988,-0.315 -7.482,-0.315 -4.077,0 -8.149,0.28 -12.186,0.838"/>
  <path class="fil1 str0" d="M50.616 2.876c0.538,0.07 1.08,0.104 1.622,0.104 0.816,0 1.634,-0.081 2.438,-0.242"/>
  <line class="fil1 str1" x1="43.374" y1="1.527" x2="45.22" y2= "2.45" />
  <path class="fil1 str0" d="M42.061 1.064c-0.204,-0.076 -0.423,-0.115 -0.642,-0.115"/>
  <path class="fil1 str0" d="M43.522 1.6c-0.204,-0.073 -0.423,-0.112 -0.642,-0.112 -0.789,0 -1.492,0.496 -1.753,1.242"/>
  <path class="fil1 str0" d="M42.061 1.064c-0.204,-0.076 -0.423,-0.115 -0.642,-0.115"/>
  <path class="fil1 str0" d="M41.146 1.384c-0.007,0 -0.019,0 -0.031,0 -0.58,0 -1.122,0.307 -1.419,0.808"/>
  <line class="fil1 str2" x1="25.906" y1="1.891" x2="2.831" y2= "1.891" />
  <path class="fil1 str0" d="M31.826 2.554c-0.458,0.989 -0.73,2.054 -0.8,3.143"/>
  <path class="fil1 str0" d="M32.499 0.938c-0.997,0.227 -1.765,1.015 -1.969,2.012"/>
  <path class="fil1 str0" d="M34.425 1.192c-1.011,0.081 -1.953,0.572 -2.599,1.362"/>
  <path class="fil1 str0" d="M30.676 2.473c-1.622,-0.374 -3.287,-0.578 -4.952,-0.596"/>
  <path class="fil1 str0" d="M2.861 1.877c-0.584,0 -1.133,0.277 -1.483,0.742"/>
  <path class="fil1 str0" d="M3.231 58.444c0.112,-0.389 0.166,-0.797 0.166,-1.205 0,-0.403 -0.054,-0.811 -0.166,-1.203"/>
 </g>
</symbol>

    <symbol id="furniture-window" viewBox="0 0 100 40" preserveAspectRatio="none">
        <rect width="100" height="40" fill="#F2EEE5" />
        <rect y="38" width="100" height="2" fill="currentColor" />
        <rect width="100" height="2" fill="currentColor" />
        <rect y="16" width="100" height="2" fill="currentColor" />
        <rect y="22" width="100" height="2" fill="currentColor" />
    </symbol>

    <symbol id="furniture-balcony" viewBox="0 0 150 40">
        <rect width="150" height="40" fill="#F2EEE5" />
        <rect y="38" width="150" height="2" fill="currentColor" />
        <rect width="150" height="2" fill="currentColor" />
        <rect y="16" width="80" height="2" fill="currentColor" />
        <rect y="22" width="80" height="2" fill="currentColor" />
        <rect x="74" y="2" width="2" height="36" fill="currentColor" />
        <rect x="4" y="18" width="2" height="4" fill="currentColor" />
        <rect x="68" y="18" width="2" height="4" fill="currentColor" />
        <rect x="80" y="16" width="2" height="8" fill="currentColor" />
        <rect x="144" y="16" width="2" height="8" fill="currentColor" />
        <polygon points="86.63,33.26 145.01,18 145.01,20.06 87.14,35.19 " fill="currentColor" />
        <rect x="146" y="16" width="4" height="2" fill="currentColor" />
        <rect x="146" y="22" width="4" height="2" fill="currentColor" />
    </symbol>

    <symbol id="furniture-main-door1" viewBox="0 0 90 40" preserveAspectRatio="none">
        <rect width="90" height="40" fill="#F2EEE5" />
        <polygon points="13.75,38.04 90,17.99 90,20.06 14.25,39.96" fill="currentColor"
            fill-rule="nonzero" />
    </symbol>

    <symbol id="furniture-main-door2" viewBox="0 0 90 70" preserveAspectRatio="none">
        <rect width="90" height="40" fill="#F2EEE5" />
        <polygon points="8.74,61.57 90,33.53 90,35.59 9.25,63.5" fill="currentColor"
            fill-rule="nonzero" />
    </symbol>

    <symbol id="furniture-inside-door" viewBox="0 0 70 22" preserveAspectRatio="none">
        <rect width="70" height="10" fill="#F2EEE5" />
        <!-- было: 8.12... и 8.63... -->
        <polygon points="0,19.92 70,3.66 70,5.12 0,21.25"
            fill="currentColor" fill-rule="nonzero" />
    </symbol>
    <symbol id="mebel-divan-big" viewBox="0 0 200 100">
        <path fill="currentColor"
            d="M72.72 94.49l-0.11 -58.91 1.98 0 0.11 58.9 -1.98 0.01zm-25.51 -57.71l0 2.01 0 0 -0.78 0 -0.77 -0.01 -0.77 -0.01 -0.78 -0.01 -0.77 -0.02 -0.77 -0.02 -0.78 -0.02 -0.77 -0.03 -0.77 -0.04 -0.77 -0.03 -0.77 -0.04 -0.78 -0.05 -0.77 -0.05 -0.77 -0.05 -0.77 -0.05 -0.77 -0.06 -0.77 -0.07 -0.77 -0.06 -0.77 -0.07 -0.77 -0.08 -0.76 -0.08 -0.77 -0.08 -0.77 -0.09 -0.77 -0.09 -0.77 -0.09 -0.76 -0.1 -0.77 -0.1 -0.77 -0.11 -0.76 -0.11 -0.77 -0.11 -0.76 -0.12 -0.77 -0.12 0.31 -1.98 0.76 0.12 0.75 0.12 0.76 0.11 0.76 0.11 0.75 0.1 0.76 0.1 0.75 0.1 0.76 0.09 0.76 0.09 0.76 0.09 0.76 0.08 0.76 0.07 0.76 0.08 0.76 0.07 0.76 0.07 0.76 0.06 0.76 0.06 0.76 0.05 0.76 0.05 0.76 0.05 0.76 0.04 0.77 0.04 0.76 0.04 0.76 0.03 0.76 0.03 0.77 0.03 0.76 0.02 0.76 0.01 0.77 0.02 0.76 0.01 0.76 0 0.77 0 0 0zm25.45 -2.12l0.32 1.97 0 0 -0.8 0.14 -0.8 0.13 -0.8 0.12 -0.8 0.12 -0.8 0.11 -0.8 0.12 -0.8 0.1 -0.8 0.11 -0.81 0.1 -0.8 0.09 -0.8 0.09 -0.81 0.09 -0.8 0.08 -0.81 0.08 -0.81 0.07 -0.8 0.07 -0.81 0.06 -0.8 0.07 -0.81 0.05 -0.81 0.06 -0.81 0.04 -0.81 0.05 -0.8 0.04 -0.81 0.03 -0.81 0.04 -0.81 0.02 -0.81 0.03 -0.81 0.02 -0.81 0.01 -0.8 0.01 -0.81 0.01 -0.81 0 0 -2.01 0.8 0 0.79 0 0.8 -0.01 0.8 -0.02 0.8 -0.02 0.8 -0.02 0.8 -0.03 0.8 -0.03 0.79 -0.03 0.8 -0.04 0.8 -0.05 0.8 -0.05 0.8 -0.05 0.79 -0.05 0.8 -0.06 0.79 -0.07 0.8 -0.07 0.8 -0.07 0.79 -0.08 0.8 -0.08 0.79 -0.08 0.79 -0.09 0.8 -0.1 0.79 -0.09 0.79 -0.11 0.8 -0.1 0.79 -0.11 0.79 -0.12 0.79 -0.11 0.79 -0.13 0.79 -0.12 0.79 -0.13 0 0zm0.94 -0.08l0 2 0 0 -0.02 0 0 0 -0.03 0 -0.05 0 0 0 0 0 -0.02 0 -0.03 0 -0.02 0.01 -0.03 0 -0.02 0 0 0 -0.03 0 -0.02 0 0 0 -0.05 0.01 -0.02 0 0.02 0 -0.03 0 -0.04 0 -0.03 0.01 0 0 -0.02 0 -0.03 0 0 0 -0.02 0.01 -0.03 0 -0.02 0 -0.02 0.01 -0.01 0 -0.02 0 -0.03 0 -0.32 -1.97 0.02 -0.01 0.02 0 0.05 -0.01 0.03 0 0.02 -0.01 0.02 0 0.03 0 0.05 -0.01 0.02 0 0.03 -0.01 0.04 0 0.03 0 0 0 0.02 -0.01 0.07 0 0.03 0 0 0 0.05 -0.01 0.02 0 0.03 0 0.05 0 0.02 -0.01 0.03 0 0.02 0 0.02 0 0.03 0 0.05 0 0.04 0 0.01 0 0.02 0 0.05 0 0.02 0 0 0zm0.95 0.08l-0.32 1.97 0 0 -0.03 0 -0.03 0 0.01 0 -0.03 -0.01 -0.03 0 -0.02 0 -0.02 -0.01 0 0 -0.03 0 -0.03 0 0.01 0 -0.03 -0.01 -0.05 0 -0.02 0 0.02 0 -0.03 0 -0.04 -0.01 0 0 -0.03 0 -0.02 0 0 0 -0.03 0 -0.02 0 -0.03 -0.01 -0.02 0 -0.03 0 0 0 0 0 -0.05 0 -0.02 0 0 0 -0.03 0 0 -2 0.03 0 0.05 0 0.02 0 0 0 0.05 0 0.05 0 0.02 0 0.02 0 0.03 0 0.02 0 0.03 0.01 0.05 0 0.02 0 0.03 0 0.04 0.01 0.01 0 0.02 0 0.07 0 0.02 0.01 0.01 0 0.02 0 0.05 0 0.02 0.01 0.03 0 0.04 0.01 0.03 0 0.03 0 0.02 0.01 0.02 0 0.05 0.01 0.03 0 0.02 0.01 0 0zm25.45 2.12l0 2.01 0 0 -0.81 0 -0.81 -0.01 -0.81 -0.01 -0.81 -0.01 -0.81 -0.02 -0.81 -0.03 -0.8 -0.02 -0.81 -0.04 -0.81 -0.03 -0.81 -0.04 -0.81 -0.05 -0.81 -0.04 -0.8 -0.06 -0.81 -0.05 -0.81 -0.07 -0.8 -0.06 -0.81 -0.07 -0.8 -0.07 -0.81 -0.08 -0.8 -0.08 -0.81 -0.09 -0.8 -0.09 -0.8 -0.09 -0.81 -0.1 -0.8 -0.11 -0.8 -0.1 -0.8 -0.12 -0.81 -0.11 -0.8 -0.12 -0.8 -0.12 -0.8 -0.13 -0.79 -0.14 0.32 -1.97 0.79 0.13 0.79 0.12 0.79 0.13 0.79 0.11 0.79 0.12 0.79 0.11 0.79 0.1 0.79 0.11 0.8 0.09 0.79 0.1 0.8 0.09 0.79 0.08 0.79 0.08 0.8 0.08 0.79 0.07 0.8 0.07 0.8 0.07 0.79 0.06 0.8 0.05 0.8 0.05 0.79 0.05 0.8 0.05 0.8 0.04 0.8 0.03 0.8 0.03 0.8 0.03 0.79 0.02 0.8 0.02 0.8 0.02 0.8 0.01 0.8 0 0.8 0 0 0zm25.45 -2.12l0.33 1.97 -0.01 0 -0.79 0.14 -0.8 0.13 -0.8 0.12 -0.8 0.12 -0.81 0.11 -0.8 0.12 -0.8 0.1 -0.8 0.11 -0.81 0.1 -0.8 0.09 -0.8 0.09 -0.81 0.09 -0.8 0.08 -0.81 0.08 -0.8 0.07 -0.81 0.07 -0.81 0.06 -0.8 0.07 -0.81 0.05 -0.81 0.06 -0.81 0.04 -0.8 0.05 -0.81 0.04 -0.81 0.03 -0.81 0.04 -0.81 0.02 -0.8 0.03 -0.81 0.02 -0.81 0.01 -0.81 0.01 -0.81 0.01 -0.81 0 0 -2.01 0.8 0 0.8 0 0.8 -0.01 0.8 -0.02 0.79 -0.02 0.8 -0.02 0.8 -0.03 0.8 -0.03 0.8 -0.03 0.8 -0.04 0.79 -0.05 0.8 -0.05 0.8 -0.05 0.79 -0.05 0.8 -0.06 0.8 -0.07 0.79 -0.07 0.8 -0.07 0.79 -0.08 0.8 -0.08 0.79 -0.08 0.8 -0.09 0.79 -0.1 0.79 -0.09 0.8 -0.11 0.79 -0.1 0.79 -0.11 0.79 -0.12 0.79 -0.11 0.79 -0.13 0.79 -0.12 0.79 -0.13 0 0zm0.33 1.97l-0.01 0 0.2 -0.03 -0.19 0.03zm0.62 -2.05l0 2 0 0 -0.03 0 0 0 -0.03 0 -0.04 0 0 0 0 0 -0.03 0 -0.03 0 -0.02 0.01 -0.03 0 -0.02 0 0 0 -0.03 0 -0.02 0 0 0 -0.05 0.01 -0.02 0 0.02 0 -0.02 0 -0.05 0 -0.03 0.01 0 0 -0.02 0 -0.03 0 0 0 -0.02 0.01 -0.03 0 -0.02 0 -0.02 0.01 0 0 -0.03 0 -0.02 0 -0.33 -1.97 0.02 -0.01 0.03 0 0.04 -0.01 0.03 0 0.02 -0.01 0.02 0 0.03 0 0.05 -0.01 0.02 0 0.03 -0.01 0.04 0 0.03 0 0 0 0.02 -0.01 0.08 0 0.02 0 0 0 0.05 -0.01 0.02 0 0.03 0 0.05 0 0.02 -0.01 0.03 0 0.02 0 0.03 0 0.02 0 0.05 0 0.05 0 0 0 0.02 0 0.05 0 0.03 0 0 0zm0.94 0.08l-0.32 1.97 0 0 -0.03 0 -0.02 0 -0.01 0 -0.02 -0.01 -0.02 0 -0.03 0 -0.02 -0.01 0 0 -0.03 0 -0.02 0 0 0 -0.03 -0.01 -0.04 0 -0.03 0 0.02 0 -0.02 0 -0.05 -0.01 0 0 -0.03 0 -0.02 0 0 0 -0.02 0 -0.03 0 -0.02 -0.01 -0.03 0 -0.02 0 -0.01 0 0 0 -0.04 0 -0.03 0 0 0 -0.02 0 0 -2 0.02 0 0.05 0 0.02 0 0 0 0.05 0 0.05 0 0.02 0 0.03 0 0.02 0 0.03 0 0.02 0.01 0.05 0 0.02 0 0.03 0 0.05 0.01 0 0 0.02 0 0.08 0 0.02 0.01 0 0 0.03 0 0.04 0 0.03 0.01 0.02 0 0.05 0.01 0.03 0 0.02 0 0.02 0.01 0.03 0 0.05 0.01 0.02 0 0.02 0.01 0 0zm25.45 2.12l0 2.01 0 0 -0.81 0 -0.81 -0.01 -0.81 -0.01 -0.81 -0.01 -0.81 -0.02 -0.8 -0.03 -0.81 -0.02 -0.81 -0.04 -0.81 -0.03 -0.81 -0.04 -0.8 -0.05 -0.81 -0.04 -0.81 -0.06 -0.81 -0.05 -0.8 -0.07 -0.81 -0.06 -0.81 -0.07 -0.8 -0.07 -0.81 -0.08 -0.8 -0.08 -0.81 -0.09 -0.8 -0.09 -0.8 -0.09 -0.81 -0.1 -0.8 -0.11 -0.8 -0.1 -0.8 -0.12 -0.8 -0.11 -0.8 -0.12 -0.8 -0.12 -0.8 -0.13 -0.8 -0.14 0.32 -1.97 0.79 0.13 0.79 0.12 0.79 0.13 0.79 0.11 0.79 0.12 0.79 0.11 0.8 0.1 0.79 0.11 0.79 0.09 0.8 0.1 0.79 0.09 0.79 0.08 0.8 0.08 0.79 0.08 0.8 0.07 0.79 0.07 0.8 0.07 0.8 0.06 0.79 0.05 0.8 0.05 0.8 0.05 0.79 0.05 0.8 0.04 0.8 0.03 0.8 0.03 0.8 0.03 0.8 0.02 0.79 0.02 0.8 0.02 0.8 0.01 0.8 0 0.8 0 0 0zm24.32 -1.94l0.31 1.98 -0.76 0.12 -0.76 0.12 -0.77 0.11 -0.76 0.11 -0.77 0.11 -0.77 0.1 -0.76 0.1 -0.77 0.09 -0.77 0.09 -0.77 0.09 -0.77 0.08 -0.76 0.08 -0.77 0.08 -0.77 0.07 -0.77 0.06 -0.77 0.07 -0.77 0.06 -0.78 0.05 -0.77 0.05 -0.77 0.05 -0.77 0.05 -0.77 0.04 -0.77 0.03 -0.78 0.04 -0.77 0.03 -0.77 0.02 -0.77 0.02 -0.78 0.02 -0.77 0.01 -0.77 0.01 -0.78 0.01 -0.77 0 0 -2.01 0.77 0 0.76 0 0.76 -0.01 0.76 -0.02 0.77 -0.01 0.76 -0.02 0.76 -0.03 0.77 -0.03 0.76 -0.03 0.76 -0.04 0.76 -0.04 0.76 -0.04 0.77 -0.05 0.76 -0.05 0.76 -0.05 0.76 -0.06 0.76 -0.06 0.76 -0.07 0.76 -0.07 0.76 -0.08 0.76 -0.07 0.76 -0.08 0.76 -0.09 0.76 -0.09 0.75 -0.09 0.76 -0.1 0.76 -0.1 0.75 -0.1 0.76 -0.11 0.76 -0.11 0.75 -0.12 0.75 -0.12zm-51.72 59.66l0.02 -58.92 1.98 0 -0.02 58.92 -1.98 0zm69.61 -10.03l-0.16 -4.85 1.98 -0.06 0.16 4.85 0 0.05 -1.98 0.01zm1.98 -0.06l0 0.02 0 0.03 0 -0.05zm-10.87 11.09l0 -2 -0.02 0 0.45 -0.02 0.45 -0.05 0.44 -0.06 0.44 -0.09 0.43 -0.1 0.41 -0.13 0.41 -0.15 0.4 -0.16 0.39 -0.19 0.38 -0.2 0.37 -0.22 0.36 -0.24 0.35 -0.25 0.33 -0.27 0.32 -0.28 0.31 -0.3 0.3 -0.32 0.28 -0.32 0.26 -0.35 0.25 -0.35 0.23 -0.36 0.22 -0.38 0.2 -0.39 0.18 -0.4 0.16 -0.41 0.14 -0.41 0.13 -0.43 0.11 -0.43 0.08 -0.45 0.06 -0.45 0.05 -0.46 0.02 -0.46 1.98 0.04 -0.03 0.56 -0.05 0.56 -0.08 0.55 -0.1 0.54 -0.13 0.52 -0.15 0.52 -0.18 0.51 -0.2 0.5 -0.22 0.48 -0.24 0.47 -0.26 0.46 -0.28 0.45 -0.31 0.43 -0.32 0.41 -0.34 0.4 -0.35 0.38 -0.38 0.36 -0.39 0.35 -0.41 0.33 -0.42 0.31 -0.44 0.29 -0.45 0.26 -0.46 0.25 -0.48 0.22 -0.48 0.21 -0.5 0.18 -0.52 0.15 -0.51 0.13 -0.54 0.11 -0.53 0.07 -0.55 0.06 -0.55 0.02 -0.02 0zm0.02 0l0 0 -0.02 0 0.02 0zm-172.24 -2l172.22 0 0 2 -172.22 0 -0.02 0 0.02 -2zm0 2l-0.02 0 0 0 0.02 0zm-10.87 -11.09l1.98 0.06 0 -0.05 0.02 0.46 0.04 0.46 0.07 0.45 0.08 0.45 0.11 0.43 0.12 0.43 0.15 0.41 0.16 0.41 0.18 0.4 0.2 0.39 0.22 0.38 0.23 0.36 0.25 0.35 0.26 0.35 0.28 0.32 0.3 0.32 0.3 0.3 0.33 0.28 0.33 0.27 0.35 0.25 0.35 0.24 0.38 0.22 0.38 0.2 0.39 0.19 0.4 0.16 0.41 0.15 0.41 0.13 0.43 0.1 0.43 0.09 0.45 0.06 0.44 0.05 0.46 0.02 -0.04 2 -0.55 -0.02 -0.55 -0.06 -0.54 -0.07 -0.53 -0.11 -0.52 -0.13 -0.51 -0.15 -0.5 -0.18 -0.49 -0.21 -0.47 -0.22 -0.47 -0.25 -0.45 -0.26 -0.43 -0.29 -0.42 -0.31 -0.41 -0.33 -0.39 -0.35 -0.38 -0.36 -0.36 -0.38 -0.34 -0.4 -0.32 -0.41 -0.3 -0.43 -0.28 -0.45 -0.27 -0.46 -0.24 -0.47 -0.22 -0.48 -0.2 -0.5 -0.17 -0.51 -0.15 -0.52 -0.13 -0.53 -0.1 -0.53 -0.08 -0.55 -0.05 -0.56 -0.03 -0.56 0 -0.05zm0 0.05l0 -0.03 0 -0.02 0 0.05zm2.13 -4.54l-0.15 4.55 -1.98 -0.06 0.15 -4.55 1.98 0.06zm2.13 -66.7l-0.41 12.78 -1.98 -0.07 0.41 -12.77 1.98 0.06 0 0zm0 0l0 0 0 0.02 0 -0.02zm3.2 -5.75l0.21 1.99 0 0 -0.18 0.03 -0.17 0.03 -0.17 0.04 -0.17 0.04 -0.16 0.06 -0.16 0.06 -0.16 0.07 -0.15 0.07 -0.15 0.08 -0.15 0.09 -0.14 0.1 -0.14 0.09 -0.13 0.11 -0.13 0.11 -0.12 0.12 -0.11 0.13 -0.12 0.12 -0.1 0.14 -0.1 0.14 -0.1 0.14 -0.08 0.14 -0.08 0.15 -0.08 0.16 -0.07 0.16 -0.06 0.16 -0.06 0.16 -0.05 0.17 -0.04 0.18 -0.03 0.17 -0.02 0.17 -0.02 0.19 -0.01 0.18 -1.98 -0.06 0.01 -0.28 0.03 -0.26 0.04 -0.27 0.05 -0.27 0.06 -0.26 0.07 -0.25 0.08 -0.25 0.1 -0.25 0.11 -0.24 0.11 -0.23 0.12 -0.23 0.14 -0.22 0.14 -0.22 0.15 -0.21 0.16 -0.2 0.17 -0.19 0.18 -0.19 0.18 -0.18 0.19 -0.17 0.2 -0.16 0.21 -0.15 0.22 -0.15 0.22 -0.13 0.23 -0.12 0.23 -0.12 0.24 -0.1 0.24 -0.1 0.25 -0.08 0.26 -0.07 0.26 -0.06 0.26 -0.05 0.27 -0.03 0 0zm36.73 -1.98l0 2.01 0 0 -1.15 0 -1.14 0.01 -1.14 0.01 -1.15 0.01 -1.14 0.02 -1.14 0.02 -1.15 0.02 -1.14 0.03 -1.14 0.04 -1.14 0.03 -1.15 0.04 -1.14 0.05 -1.14 0.04 -1.14 0.06 -1.15 0.05 -1.14 0.06 -1.14 0.07 -1.14 0.06 -1.14 0.07 -1.14 0.08 -1.14 0.08 -1.14 0.08 -1.14 0.08 -1.14 0.1 -1.14 0.09 -1.14 0.1 -1.14 0.1 -1.14 0.1 -1.14 0.11 -1.14 0.12 -1.13 0.11 -1.14 0.12 -0.21 -1.99 1.14 -0.12 1.15 -0.12 1.14 -0.11 1.15 -0.11 1.14 -0.11 1.15 -0.1 1.14 -0.1 1.15 -0.09 1.15 -0.09 1.14 -0.09 1.15 -0.08 1.15 -0.08 1.14 -0.08 1.15 -0.07 1.15 -0.07 1.15 -0.06 1.14 -0.06 1.15 -0.06 1.15 -0.05 1.15 -0.05 1.15 -0.04 1.15 -0.04 1.15 -0.04 1.15 -0.03 1.15 -0.03 1.15 -0.03 1.15 -0.02 1.15 -0.01 1.15 -0.02 1.15 -0.01 1.15 0 1.15 -0.01 0 0zm105.58 2.01l-105.58 0 0 -2.01 105.58 0 0 0 0 2.01zm36.73 -0.03l-0.21 1.99 0 0 -1.14 -0.12 -1.14 -0.11 -1.13 -0.12 -1.14 -0.11 -1.14 -0.1 -1.14 -0.1 -1.14 -0.1 -1.14 -0.09 -1.14 -0.1 -1.14 -0.08 -1.14 -0.08 -1.14 -0.08 -1.14 -0.08 -1.14 -0.07 -1.14 -0.06 -1.14 -0.07 -1.15 -0.06 -1.14 -0.05 -1.14 -0.06 -1.14 -0.04 -1.14 -0.05 -1.15 -0.04 -1.14 -0.03 -1.14 -0.04 -1.14 -0.03 -1.15 -0.02 -1.14 -0.02 -1.14 -0.02 -1.15 -0.01 -1.14 -0.01 -1.14 -0.01 -1.15 0 0 -2.01 1.15 0.01 1.15 0 1.15 0.01 1.15 0.02 1.15 0.01 1.15 0.02 1.15 0.03 1.15 0.03 1.15 0.03 1.15 0.04 1.15 0.04 1.15 0.04 1.15 0.05 1.14 0.05 1.15 0.06 1.15 0.06 1.15 0.06 1.15 0.07 1.14 0.07 1.15 0.08 1.15 0.08 1.15 0.08 1.14 0.09 1.15 0.09 1.14 0.09 1.15 0.1 1.15 0.1 1.14 0.11 1.15 0.11 1.14 0.11 1.15 0.12 1.14 0.12 0 0zm5.18 5.69l-1.98 0.06 0 0 -0.01 -0.19 -0.02 -0.18 -0.02 -0.17 -0.04 -0.18 -0.04 -0.17 -0.05 -0.16 -0.05 -0.17 -0.06 -0.16 -0.07 -0.16 -0.08 -0.16 -0.08 -0.15 -0.09 -0.14 -0.09 -0.14 -0.1 -0.14 -0.11 -0.14 -0.11 -0.12 -0.12 -0.13 -0.12 -0.12 -0.13 -0.11 -0.13 -0.11 -0.14 -0.09 -0.14 -0.1 -0.14 -0.09 -0.15 -0.08 -0.15 -0.07 -0.16 -0.07 -0.16 -0.06 -0.16 -0.06 -0.17 -0.04 -0.17 -0.04 -0.17 -0.03 -0.18 -0.03 0.21 -1.99 0.27 0.03 0.26 0.05 0.26 0.06 0.25 0.07 0.25 0.08 0.25 0.1 0.24 0.1 0.23 0.12 0.23 0.12 0.22 0.13 0.21 0.15 0.21 0.15 0.2 0.16 0.19 0.17 0.19 0.18 0.18 0.19 0.16 0.19 0.17 0.2 0.15 0.21 0.14 0.21 0.13 0.23 0.13 0.23 0.11 0.23 0.11 0.24 0.09 0.25 0.08 0.25 0.08 0.25 0.06 0.26 0.05 0.27 0.04 0.27 0.02 0.27 0.02 0.27 0 0zm-1.98 0.06l0 0 0 0.02 0 -0.02zm0.42 13.37l-0.42 -13.37 1.98 -0.06 0.42 13.36 -1.98 0.07zm-128.8 -9.02l-1.19 1.61 0.49 -1.8 2.27 -0.24 2.28 -0.22 2.27 -0.21 2.27 -0.19 2.28 -0.18 2.27 -0.16 2.27 -0.14 2.28 -0.13 2.27 -0.12 2.27 -0.09 2.27 -0.09 2.27 -0.07 2.28 -0.05 2.27 -0.03 2.27 -0.02 2.27 -0.01 2.27 0.01 2.28 0.03 2.27 0.04 2.27 0.05 2.27 0.08 2.28 0.08 2.27 0.1 2.27 0.12 2.27 0.13 2.28 0.15 2.27 0.16 2.27 0.18 2.28 0.2 2.27 0.2 2.28 0.23 2.27 0.24 -0.21 1.99 -2.26 -0.24 -2.26 -0.22 -2.26 -0.21 -2.26 -0.19 -2.27 -0.17 -2.26 -0.17 -2.26 -0.15 -2.26 -0.13 -2.25 -0.11 -2.26 -0.11 -2.26 -0.08 -2.26 -0.07 -2.26 -0.06 -2.26 -0.04 -2.26 -0.02 -2.26 -0.01 -2.26 0 -2.26 0.02 -2.25 0.04 -2.26 0.05 -2.26 0.07 -2.26 0.08 -2.26 0.1 -2.26 0.11 -2.26 0.13 -2.26 0.14 -2.26 0.16 -2.26 0.18 -2.26 0.19 -2.26 0.2 -2.26 0.23 -2.26 0.23 0.49 -1.8zm-1.19 1.61l-2 -1.53 2.49 -0.27 -0.49 1.8zm11.43 16.26l-1.96 0.27 -0.09 -0.62 -0.1 -0.62 -0.12 -0.61 -0.13 -0.6 -0.15 -0.61 -0.16 -0.59 -0.18 -0.59 -0.18 -0.58 -0.21 -0.58 -0.21 -0.57 -0.23 -0.57 -0.24 -0.56 -0.25 -0.55 -0.27 -0.54 -0.28 -0.54 -0.29 -0.52 -0.31 -0.53 -0.32 -0.51 -0.33 -0.5 -0.34 -0.5 -0.36 -0.49 -0.37 -0.48 -0.38 -0.47 -0.39 -0.46 -0.41 -0.45 -0.42 -0.45 -0.43 -0.43 -0.44 -0.42 -0.45 -0.42 -0.47 -0.4 -0.47 -0.39 -0.49 -0.38 1.19 -1.61 0.53 0.42 0.51 0.42 0.5 0.44 0.5 0.44 0.47 0.46 0.47 0.47 0.45 0.48 0.44 0.49 0.43 0.5 0.41 0.51 0.4 0.52 0.38 0.53 0.37 0.54 0.36 0.54 0.35 0.56 0.33 0.56 0.32 0.57 0.3 0.58 0.29 0.59 0.28 0.6 0.26 0.6 0.24 0.61 0.23 0.62 0.22 0.62 0.2 0.63 0.19 0.64 0.17 0.64 0.16 0.65 0.15 0.65 0.12 0.66 0.12 0.67 0.09 0.66zm-67.61 -12.37l-1.98 -0.06 0.22 -1.29 0.58 -1.15 0.85 -0.99 1.09 -0.83 1.29 -0.71 1.48 -0.61 1.64 -0.52 1.81 -0.43 1.95 -0.37 2.08 -0.3 2.2 -0.24 2.3 -0.18 2.38 -0.14 2.45 -0.08 2.5 -0.04 2.54 0 2.55 0.03 2.56 0.07 2.54 0.1 2.51 0.12 2.45 0.14 2.4 0.16 2.3 0.17 2.21 0.17 2.09 0.19 1.96 0.18 1.8 0.19 1.64 0.17 1.45 0.17 1.25 0.15 1.03 0.13 0.8 0.11 -0.29 1.99 -0.77 -0.11 -1.01 -0.13 -1.24 -0.15 -1.44 -0.17 -1.62 -0.17 -1.79 -0.18 -1.95 -0.18 -2.07 -0.19 -2.2 -0.18 -2.29 -0.16 -2.38 -0.16 -2.44 -0.14 -2.48 -0.12 -2.52 -0.09 -2.54 -0.07 -2.52 -0.04 -2.51 0 -2.47 0.04 -2.41 0.09 -2.34 0.13 -2.25 0.18 -2.13 0.23 -2.01 0.29 -1.86 0.35 -1.69 0.41 -1.51 0.47 -1.3 0.53 -1.06 0.59 -0.82 0.62 -0.56 0.64 -0.33 0.66 -0.12 0.71zm129.89 -3.85l-1.19 -1.6 0.45 -0.19 0.8 -0.11 1.03 -0.13 1.25 -0.16 1.45 -0.16 1.64 -0.18 1.8 -0.19 1.96 -0.18 2.09 -0.19 2.2 -0.18 2.31 -0.17 2.39 -0.16 2.46 -0.15 2.51 -0.12 2.53 -0.1 2.56 -0.07 2.55 -0.04 2.54 0 2.5 0.04 2.45 0.08 2.38 0.13 2.3 0.18 2.2 0.24 2.08 0.3 1.95 0.36 1.8 0.44 1.65 0.52 1.47 0.6 1.29 0.71 1.09 0.84 0.86 0.99 0.57 1.15 0.23 1.29 -1.98 0.06 -0.12 -0.71 -0.33 -0.66 -0.57 -0.64 -0.81 -0.63 -1.07 -0.58 -1.29 -0.53 -1.51 -0.48 -1.69 -0.41 -1.86 -0.34 -2.01 -0.29 -2.13 -0.23 -2.25 -0.18 -2.34 -0.13 -2.41 -0.08 -2.47 -0.03 -2.5 0 -2.53 0.04 -2.53 0.07 -2.52 0.09 -2.49 0.13 -2.44 0.14 -2.37 0.16 -2.29 0.17 -2.2 0.18 -2.07 0.18 -1.95 0.19 -1.79 0.18 -1.62 0.18 -1.44 0.16 -1.24 0.16 -1.01 0.13 -0.77 0.11 0.45 -0.2zm-1.19 -1.6l0.2 -0.15 0.25 -0.04 -0.45 0.19zm-8.29 18.09l-1.97 -0.26 0.1 -0.67 0.11 -0.67 0.13 -0.66 0.15 -0.65 0.15 -0.65 0.18 -0.64 0.19 -0.63 0.2 -0.63 0.22 -0.62 0.23 -0.62 0.25 -0.61 0.26 -0.6 0.27 -0.59 0.29 -0.59 0.31 -0.58 0.32 -0.57 0.33 -0.56 0.34 -0.55 0.36 -0.55 0.38 -0.53 0.38 -0.53 0.4 -0.51 0.42 -0.51 0.42 -0.5 0.44 -0.49 0.45 -0.47 0.47 -0.47 0.48 -0.46 0.48 -0.44 0.51 -0.44 0.51 -0.42 0.53 -0.42 1.19 1.6 -0.49 0.39 -0.47 0.39 -0.47 0.4 -0.45 0.42 -0.44 0.42 -0.43 0.43 -0.42 0.44 -0.41 0.45 -0.39 0.46 -0.38 0.47 -0.37 0.48 -0.36 0.49 -0.34 0.49 -0.34 0.5 -0.32 0.51 -0.3 0.52 -0.3 0.53 -0.28 0.53 -0.26 0.54 -0.26 0.55 -0.24 0.56 -0.23 0.56 -0.22 0.57 -0.2 0.58 -0.18 0.58 -0.18 0.58 -0.16 0.6 -0.15 0.6 -0.13 0.6 -0.12 0.62 -0.1 0.61 -0.09 0.62z" />
        <path fill="currentColor"
            d="M19.59 81.14l0 -2 0 0 0.02 -0.01 0.01 0 0.01 0 0.02 0 0.01 -0.01 0 0 0.01 0 0.01 -0.01 0.01 -0.01 0.02 -0.02 0.01 -0.01 0.02 -0.02 0.02 -0.04 0.02 -0.03 0.02 -0.03 0.03 -0.05 0.03 -0.05 0.02 -0.05 0.02 -0.06 0.02 -0.06 0.02 -0.06 0.02 -0.07 0.02 -0.08 0.01 -0.07 0.02 -0.08 0.01 -0.07 0.01 -0.08 0.01 -0.08 0 -0.08 0.01 -0.08 0 -0.08 0 -0.08 1.98 0 0 0.13 0 0.12 -0.01 0.13 -0.01 0.13 -0.02 0.13 -0.01 0.13 -0.02 0.13 -0.03 0.12 -0.02 0.14 -0.03 0.12 -0.04 0.13 -0.04 0.14 -0.04 0.12 -0.05 0.13 -0.06 0.13 -0.06 0.12 -0.06 0.12 -0.08 0.13 -0.08 0.12 -0.09 0.11 -0.09 0.12 -0.11 0.11 -0.11 0.1 -0.13 0.1 -0.13 0.09 -0.14 0.08 -0.16 0.08 -0.15 0.05 -0.16 0.05 -0.17 0.03 -0.17 0.03 -0.17 0 0 0zm-15.58 -2l15.58 0 0 2 -15.58 0 -0.01 -2 0.01 0zm-0.01 0l0 0 0.01 0 -0.01 0zm-3.13 -1.26l1.97 -0.2 -0.01 -0.01 0.02 0.08 0.01 0.09 0.01 0.09 0.02 0.08 0.02 0.08 0.02 0.08 0.02 0.07 0.03 0.07 0.03 0.08 0.03 0.07 0.02 0.06 0.03 0.06 0.04 0.06 0.03 0.06 0.04 0.05 0.03 0.04 0.03 0.04 0.04 0.04 0.04 0.04 0.03 0.03 0.04 0.03 0.04 0.03 0.04 0.02 0.05 0.03 0.04 0.02 0.04 0.01 0.05 0.02 0.06 0.01 0.06 0.01 0.06 0.01 0.07 0.01 0.08 0 0.03 2 -0.18 0 -0.19 -0.01 -0.17 -0.03 -0.17 -0.03 -0.17 -0.04 -0.16 -0.05 -0.16 -0.06 -0.16 -0.07 -0.14 -0.08 -0.14 -0.08 -0.14 -0.1 -0.13 -0.09 -0.12 -0.11 -0.11 -0.11 -0.1 -0.11 -0.11 -0.13 -0.09 -0.12 -0.08 -0.12 -0.08 -0.13 -0.08 -0.13 -0.06 -0.14 -0.07 -0.13 -0.05 -0.13 -0.05 -0.14 -0.05 -0.14 -0.04 -0.14 -0.04 -0.13 -0.03 -0.14 -0.03 -0.14 -0.03 -0.14 -0.02 -0.14 -0.01 -0.14 0 -0.01zm0 0.01l0 -0.01 -0.01 -0.08 0.01 0.09zm9.65 -55.87l0 2.01 0 0 -0.83 0.1 -0.77 0.3 -0.74 0.5 -0.72 0.71 -0.69 0.94 -0.65 1.13 -0.6 1.33 -0.55 1.51 -0.5 1.66 -0.44 1.8 -0.39 1.93 -0.35 2.03 -0.3 2.13 -0.25 2.2 -0.21 2.26 -0.17 2.31 -0.13 2.33 -0.1 2.35 -0.06 2.36 -0.04 2.33 -0.01 2.31 0.01 2.26 0.03 2.2 0.05 2.13 0.07 2.04 0.08 1.93 0.09 1.82 0.09 1.68 0.1 1.53 0.1 1.36 0.1 1.19 0.1 0.99 -1.97 0.2 -0.1 -1.01 -0.1 -1.21 -0.1 -1.38 -0.1 -1.55 -0.1 -1.7 -0.09 -1.83 -0.08 -1.95 -0.07 -2.05 -0.05 -2.15 -0.03 -2.22 -0.01 -2.28 0.01 -2.33 0.04 -2.36 0.06 -2.38 0.1 -2.38 0.14 -2.37 0.17 -2.34 0.21 -2.3 0.26 -2.25 0.31 -2.18 0.35 -2.09 0.41 -2 0.47 -1.89 0.52 -1.77 0.6 -1.63 0.67 -1.48 0.75 -1.32 0.85 -1.15 0.96 -0.96 1.09 -0.73 1.21 -0.46 1.3 -0.16 0 0zm12.78 14.55l-1.98 -0.07 0 0.01 -0.01 -0.34 -0.04 -0.37 -0.08 -0.41 -0.12 -0.44 -0.14 -0.46 -0.19 -0.49 -0.21 -0.5 -0.25 -0.51 -0.27 -0.53 -0.3 -0.53 -0.33 -0.54 -0.35 -0.53 -0.37 -0.54 -0.39 -0.53 -0.4 -0.52 -0.43 -0.52 -0.43 -0.5 -0.45 -0.48 -0.45 -0.47 -0.46 -0.44 -0.47 -0.43 -0.47 -0.39 -0.47 -0.37 -0.46 -0.33 -0.46 -0.31 -0.45 -0.26 -0.44 -0.23 -0.43 -0.18 -0.4 -0.15 -0.39 -0.1 -0.35 -0.06 -0.34 -0.02 0 -2.01 0.56 0.04 0.55 0.09 0.55 0.15 0.55 0.19 0.54 0.24 0.54 0.28 0.55 0.32 0.53 0.35 0.53 0.38 0.53 0.42 0.52 0.44 0.52 0.46 0.5 0.49 0.5 0.51 0.48 0.53 0.48 0.54 0.45 0.56 0.44 0.56 0.43 0.58 0.4 0.58 0.38 0.59 0.36 0.58 0.33 0.59 0.31 0.59 0.28 0.59 0.25 0.58 0.21 0.57 0.18 0.56 0.15 0.56 0.1 0.55 0.06 0.54 0.02 0.53 0 0.01zm0 -0.01l0 0.01 0 0.02 0 -0.03zm-3.25 41.18l1.27 -41.24 1.98 0.07 -1.27 41.23 -1.98 -0.03 0 -0.03zm0 0.03l0 -0.03 0 0 0 0.03z" />
        <path fill="currentColor"
            d="M180.47 81.15l0 0 -0.17 -0.01 -0.18 -0.02 -0.17 -0.03 -0.15 -0.05 -0.16 -0.06 -0.15 -0.07 -0.14 -0.08 -0.14 -0.09 -0.12 -0.1 -0.12 -0.1 -0.1 -0.12 -0.1 -0.11 -0.08 -0.11 -0.09 -0.13 -0.07 -0.13 -0.07 -0.11 -0.06 -0.13 -0.05 -0.13 -0.05 -0.12 -0.05 -0.13 -0.04 -0.13 -0.03 -0.13 -0.03 -0.13 -0.03 -0.13 -0.02 -0.13 -0.02 -0.13 -0.02 -0.12 -0.01 -0.13 -0.02 -0.13 0 -0.13 -0.01 -0.13 0 -0.12 1.98 0 0 0.08 0 0.08 0.01 0.08 0.01 0.07 0.01 0.08 0.01 0.09 0.01 0.07 0.01 0.08 0.02 0.07 0.01 0.08 0.02 0.06 0.02 0.06 0.02 0.07 0.03 0.06 0.02 0.05 0.02 0.05 0.03 0.05 0.02 0.04 0.02 0.02 0.02 0.03 0.02 0.03 0.02 0.01 0.02 0.02 0.01 0.01 0 0 0.01 0.01 0.01 0 0.01 0 0.02 0.01 0 0 0.01 0 0.03 0 0 0 0 2.01zm15.57 -2.01l0.02 0 -0.02 2.01 -15.57 0 0 -2.01 15.57 0zm0 0l0.02 0 0 0 -0.02 0zm3.15 -1.25l0 0.01 -0.02 0.14 -0.02 0.14 -0.03 0.14 -0.02 0.13 -0.04 0.14 -0.03 0.14 -0.05 0.14 -0.04 0.14 -0.05 0.13 -0.06 0.14 -0.06 0.13 -0.07 0.14 -0.07 0.13 -0.08 0.12 -0.09 0.13 -0.09 0.12 -0.1 0.12 -0.11 0.12 -0.11 0.11 -0.12 0.1 -0.13 0.1 -0.13 0.09 -0.14 0.09 -0.15 0.08 -0.15 0.07 -0.16 0.06 -0.16 0.05 -0.18 0.04 -0.16 0.03 -0.18 0.02 -0.18 0.02 -0.18 0 0.03 -2.01 0.07 0 0.07 0 0.07 -0.01 0.06 -0.01 0.05 -0.01 0.04 -0.02 0.06 -0.02 0.04 -0.02 0.04 -0.02 0.04 -0.03 0.04 -0.02 0.04 -0.03 0.04 -0.03 0.03 -0.04 0.04 -0.04 0.04 -0.04 0.03 -0.05 0.03 -0.05 0.04 -0.05 0.03 -0.06 0.03 -0.06 0.03 -0.06 0.03 -0.07 0.03 -0.08 0.02 -0.07 0.02 -0.07 0.03 -0.09 0.01 -0.07 0.02 -0.09 0.02 -0.08 0.01 -0.09 0.01 -0.08 0 0 1.97 0.21zm0 0l0 0.01 0.01 -0.09 -0.01 0.08zm-9.66 -55.86l0 0 1.3 0.16 1.21 0.46 1.09 0.73 0.96 0.95 0.85 1.15 0.76 1.32 0.67 1.49 0.59 1.63 0.53 1.76 0.47 1.89 0.4 2 0.36 2.1 0.3 2.18 0.26 2.24 0.21 2.31 0.18 2.34 0.13 2.37 0.1 2.38 0.07 2.38 0.04 2.36 0.01 2.33 -0.02 2.28 -0.03 2.22 -0.05 2.15 -0.07 2.05 -0.08 1.95 -0.09 1.83 -0.09 1.7 -0.1 1.54 -0.11 1.39 -0.09 1.21 -0.1 1.01 -1.97 -0.21 0.09 -0.98 0.1 -1.19 0.1 -1.37 0.1 -1.53 0.1 -1.67 0.09 -1.82 0.08 -1.93 0.06 -2.04 0.05 -2.13 0.04 -2.2 0.01 -2.26 -0.01 -2.31 -0.04 -2.34 -0.07 -2.35 -0.1 -2.35 -0.13 -2.34 -0.17 -2.31 -0.21 -2.26 -0.25 -2.2 -0.3 -2.12 -0.34 -2.03 -0.39 -1.93 -0.45 -1.8 -0.5 -1.67 -0.55 -1.5 -0.6 -1.33 -0.64 -1.14 -0.69 -0.93 -0.72 -0.72 -0.74 -0.5 -0.78 -0.29 -0.83 -0.1 0 0 0 -2.01zm-12.77 14.54l0 0 0.01 -0.53 0.06 -0.54 0.11 -0.55 0.14 -0.56 0.18 -0.56 0.22 -0.58 0.25 -0.58 0.27 -0.58 0.31 -0.59 0.34 -0.59 0.35 -0.59 0.38 -0.58 0.41 -0.59 0.42 -0.57 0.44 -0.57 0.46 -0.56 0.47 -0.54 0.48 -0.52 0.5 -0.51 0.51 -0.49 0.51 -0.47 0.52 -0.44 0.53 -0.41 0.53 -0.39 0.54 -0.35 0.54 -0.31 0.54 -0.28 0.55 -0.24 0.55 -0.2 0.55 -0.14 0.55 -0.1 0.55 -0.03 0 2.01 -0.33 0.02 -0.36 0.06 -0.38 0.1 -0.41 0.14 -0.42 0.19 -0.44 0.23 -0.46 0.26 -0.45 0.3 -0.47 0.34 -0.47 0.37 -0.47 0.39 -0.46 0.42 -0.46 0.45 -0.46 0.47 -0.44 0.48 -0.44 0.5 -0.42 0.51 -0.41 0.53 -0.39 0.53 -0.37 0.53 -0.35 0.54 -0.32 0.54 -0.3 0.53 -0.28 0.52 -0.24 0.52 -0.22 0.5 -0.18 0.48 -0.15 0.47 -0.11 0.44 -0.08 0.41 -0.05 0.37 0 0.34 0 -0.01 -1.98 0.06zm0 0l0 0 0 0.03 0 -0.03zm3.24 41.18l0 0.03 -1.98 0.03 -1.26 -41.24 1.98 -0.06 1.26 41.24zm0 0l0 0 0 0.03 0 -0.03z" />
    </symbol>
    <symbol id="furniture-main-door1-right" viewBox="0 0 90 40">
        <rect width="90" height="40" fill="#F2EEE5" />
        <!-- зеркально отражён по X (x' = 90 - x) -->
        <polygon points="76.25,38.04 0,17.99 0,20.06 75.75,39.96"
            fill="currentColor" fill-rule="nonzero" />
    </symbol>
    <!-- -->
    <symbol id="ui-cursor" viewBox="0 0 20 20" fill="currentColor">
        <path fill-rule="evenodd"
            d="M6.672 1.911a1 1 0 1 0-1.932.518l.259.966a1 1 0 0 0 1.932-.518zM2.429 4.74a1 1 0 1 0-.517 1.932l.966.259a1 1 0 0 0 .517-1.932zm8.814-.569a1 1 0 0 0-1.415-1.414l-.707.707a1 1 0 1 0 1.415 1.415zm-7.071 7.072l.707-.707A1 1 0 0 0 3.465 9.12l-.708.707a1 1 0 0 0 1.415 1.415m3.2-5.171a1 1 0 0 0-1.3 1.3l4 10a1 1 0 0 0 1.823.075l1.38-2.759l3.018 3.02a1 1 0 0 0 1.414-1.415l-3.019-3.02l2.76-1.379a1 1 0 0 0-.076-1.822z"
            clip-rule="evenodd" />
    </symbol>
    <symbol id="ui-move" viewBox="0 0 16 16" fill="currentColor">
        <path fill-rule="evenodd"
            d="M7.646.146a.5.5 0 0 1 .708 0l2 2a.5.5 0 0 1-.708.708L8.5 1.707V5.5a.5.5 0 0 1-1 0V1.707L6.354 2.854a.5.5 0 1 1-.708-.708zM8 10a.5.5 0 0 1 .5.5v3.793l1.146-1.147a.5.5 0 0 1 .708.708l-2 2a.5.5 0 0 1-.708 0l-2-2a.5.5 0 0 1 .708-.708L7.5 14.293V10.5A.5.5 0 0 1 8 10M.146 8.354a.5.5 0 0 1 0-.708l2-2a.5.5 0 1 1 .708.708L1.707 7.5H5.5a.5.5 0 0 1 0 1H1.707l1.147 1.146a.5.5 0 0 1-.708.708zM10 8a.5.5 0 0 1 .5-.5h3.793l-1.147-1.146a.5.5 0 0 1 .708-.708l2 2a.5.5 0 0 1 0 .708l-2 2a.5.5 0 0 1-.708-.708L14.293 8.5H10.5A.5.5 0 0 1 10 8" />
    </symbol>
    <symbol id="ui-wall" viewBox="0 0 16 16" fill="currentColor">
        <path
            d="M0 .5A.5.5 0 0 1 .5 0h15a.5.5 0 0 1 .5.5v3a.5.5 0 0 1-.5.5H14v2h1.5a.5.5 0 0 1 .5.5v3a.5.5 0 0 1-.5.5H14v2h1.5a.5.5 0 0 1 .5.5v3a.5.5 0 0 1-.5.5H.5a.5.5 0 0 1-.5-.5v-3a.5.5 0 0 1 .5-.5H2v-2H.5a.5.5 0 0 1-.5-.5v-3A.5.5 0 0 1 .5 6H2V4H.5a.5.5 0 0 1-.5-.5zM3 4v2h4.5V4zm5.5 0v2H13V4zM3 10v2h4.5v-2zm5.5 0v2H13v-2zM1 1v2h3.5V1zm4.5 0v2h5V1zm6 0v2H15V1zM1 7v2h3.5V7zm4.5 0v2h5V7zm6 0v2H15V7zM1 13v2h3.5v-2zm4.5 0v2h5v-2zm6 0v2H15v-2z" />
    </symbol>
    <symbol id="ui-sofa" viewBox="0 0 512 512" fill="currentColor">
        <path
            d="M448 242.025V152a48.055 48.055 0 0 0-48-48H112a48.055 48.055 0 0 0-48 48v90.025A64.115 64.115 0 0 0 16 304v112a32.036 32.036 0 0 0 32 32h16v48h32v-48h320v48h32v-48h16a32.036 32.036 0 0 0 32-32V304a64.115 64.115 0 0 0-48-61.975M112 416H48V304a32 32 0 0 1 64 0Zm256 0H144v-96h224Zm2.025-128h-228.05A64.243 64.243 0 0 0 96 242.025V152a16.019 16.019 0 0 1 16-16h288a16.019 16.019 0 0 1 16 16v90.025A64.243 64.243 0 0 0 370.025 288M464 416h-64V304a32 32 0 0 1 64 0l.02 112Z" />
    </symbol>
    <symbol id="ui-undo" viewBox="0 0 20 20" fill="currentColor">
        <path d="M12 5H7V2L1 6l6 4V7h5c2.2 0 4 1.8 4 4s-1.8 4-4 4H7v2h5c3.3 0 6-2.7 6-6s-2.7-6-6-6" />
    </symbol>
    <symbol id="ui-trash" viewBox="0 0 56 56" fill="currentColor">
        <path
            d="m44.524 48.66l1.617-34.265h2.343c.961 0 1.735-.797 1.735-1.758s-.774-1.782-1.735-1.782H38.242V7.34c0-3.352-2.273-5.531-5.882-5.531h-8.766c-3.61 0-5.86 2.18-5.86 5.53v3.516H7.54c-.937 0-1.758.82-1.758 1.782c0 .96.82 1.758 1.758 1.758h2.344L11.5 48.684c.164 3.375 2.39 5.507 5.766 5.507h21.492c3.351 0 5.601-2.156 5.765-5.53M21.484 7.574c0-1.336.985-2.273 2.391-2.273h8.227c1.43 0 2.414.937 2.414 2.273v3.281H21.484Zm-3.867 43.102c-1.36 0-2.367-1.032-2.437-2.39l-1.64-33.891h28.85l-1.546 33.89c-.07 1.383-1.055 2.39-2.438 2.39Zm17.344-4.125c.773 0 1.36-.633 1.383-1.524l.703-24.75c.023-.89-.586-1.547-1.383-1.547c-.726 0-1.336.68-1.36 1.524l-.702 24.773c-.024.844.562 1.524 1.359 1.524m-13.898 0c.797 0 1.382-.68 1.359-1.524l-.703-24.773c-.024-.844-.656-1.524-1.383-1.524c-.797 0-1.383.657-1.36 1.547l.727 24.75c.024.891.586 1.524 1.36 1.524m8.367-1.524V20.254c0-.844-.633-1.524-1.407-1.524c-.773 0-1.43.68-1.43 1.524v24.773c0 .844.657 1.524 1.43 1.524c.75 0 1.407-.68 1.407-1.524" />
    </symbol>
    <symbol id="ui-zoom-in" viewBox="0 0 16 16" fill="currentColor">
        <path fill-rule="evenodd"
            d="M6.5 12a5.5 5.5 0 1 0 0-11a5.5 5.5 0 0 0 0 11M13 6.5a6.5 6.5 0 1 1-13 0a6.5 6.5 0 0 1 13 0" />
        <path
            d="M10.344 11.742q.044.06.098.115l3.85 3.85a1 1 0 0 0 1.415-1.414l-3.85-3.85a1 1 0 0 0-.115-.1a6.5 6.5 0 0 1-1.398 1.4z" />
        <path fill-rule="evenodd"
            d="M6.5 3a.5.5 0 0 1 .5.5V6h2.5a.5.5 0 0 1 0 1H7v2.5a.5.5 0 0 1-1 0V7H3.5a.5.5 0 0 1 0-1H6V3.5a.5.5 0 0 1 .5-.5" />
    </symbol>
    <symbol id="ui-zoom-out" viewBox="0 0 16 16" fill="currentColor">
        <path fill-rule="evenodd"
            d="M6.5 12a5.5 5.5 0 1 0 0-11a5.5 5.5 0 0 0 0 11M13 6.5a6.5 6.5 0 1 1-13 0a6.5 6.5 0 0 1 13 0" />
        <path
            d="M10.344 11.742q.044.06.098.115l3.85 3.85a1 1 0 0 0 1.415-1.414l-3.85-3.85a1 1 0 0 0-.115-.1a6.5 6.5 0 0 1-1.398 1.4z" />
        <path fill-rule="evenodd" d="M3 6.5a.5.5 0 0 1 .5-.5h6a.5.5 0 0 1 0 1h-6a.5.5 0 0 1-.5-.5" />
    </symbol>
    <symbol id="ui-zoom-centred" viewBox="0 0 20 20" fill="currentColor">
        <path
            d="M7 2H2v5l1.8-1.8L6.5 8L8 6.5L5.2 3.8zm6 0l1.8 1.8L12 6.5L13.5 8l2.7-2.7L18 7V2zm.5 10L12 13.5l2.7 2.7L13 18h5v-5l-1.8 1.8zm-7 0l-2.7 2.7L2 13v5h5l-1.8-1.8L8 13.5z" />
    </symbol>
    <symbol id="ui-door" viewBox="0 0 16 16" fill="currentColor">
        <path
            d="M3 2a1 1 0 0 1 1-1h8a1 1 0 0 1 1 1v13h1.5a.5.5 0 0 1 0 1h-13a.5.5 0 0 1 0-1H3zm1 13h8V2H4z" />
        <path d="M9 9a1 1 0 1 0 2 0a1 1 0 0 0-2 0" />
    </symbol>
    <symbol id="ui-menu" viewBox="0 0 512 512">
        <path
            d="M299.3 376c6.2-14.1 20.3-24 36.7-24s30.5 9.9 36.7 24H448c8.8 0 16 7.2 16 16s-7.2 16-16 16h-75.3c-6.2 14.1-20.3 24-36.7 24s-30.5-9.9-36.7-24H64c-8.8 0-16-7.2-16-16s7.2-16 16-16h235.3z" />
        <path
            d="M139.3 240c6.2-14.1 20.3-24 36.7-24s30.5 9.9 36.7 24H448c8.8 0 16 7.2 16 16s-7.2 16-16 16H212.7c-6.2 14.1-20.3 24-36.7 24s-30.5-9.9-36.7-24H64c-8.8 0-16-7.2-16-16s7.2-16 16-16h75.3z" />
        <path
            d="M299.3 104c6.2-14.1 20.3-24 36.7-24s30.5 9.9 36.7 24H448c8.8 0 16 7.2 16 16s-7.2 16-16 16h-75.3c-6.2 14.1-20.3 24-36.7 24s-30.5-9.9-36.7-24H64c-8.8 0-16-7.2-16-16s7.2-16 16-16h235.3z" />
    </symbol>

</svg>