<svg>
    <symbol xmlns="http://www.w3.org/2000/svg" xml:space="preserve"
        id="divan"
        version="1.1"
        style="shape-rendering:geometricPrecision; text-rendering:geometricPrecision; image-rendering:optimizeQuality; fill-rule:evenodd; clip-rule:evenodd"
        viewBox="0 0 2354.78 899.58"
        xmlns:xlink="http://www.w3.org/1999/xlink"
        xmlns:xodm="http://www.corel.com/coreldraw/odm/2003"> 
 <defs>
  <style type="text/css">
   <![CDATA[
    .str0 {stroke:#64401F;stroke-width:7.62;stroke-miterlimit:22.9256}
    .fil1 {fill:none;fill-rule:nonzero}
    .fil0 {fill:white}
    .fil2 {fill:#64401F;fill-rule:nonzero}
   ]]>
  </style>
 </defs>

 <g id="Слой_x0020_1">
  <metadata id="CorelCorpID_0Corel-Layer"/>
  <g id="_2056590752">
   <path class="fil0" d="M2172.29 880.97l-2018 0 -42.05 -12.61 -33.63 -21.03 -21.02 -25.22 -8.41 -25.23 2.08 -58.31 -27.31 -17.36c-20.98,-127.66 -13.73,-287.68 21.02,-479.28l19.31 -24.8 10.12 -126.55 16.82 -29.42 37.84 -12.62 184.98 -12.61 298.5 -8.41 1278.06 0 201.8 16.82 134.54 8.4 25.22 67.28c0.79,30.85 -26.27,80.99 2.35,92.58 51.3,20.77 80.56,504.94 20.11,525.77 -14.68,5.05 -3.53,30.74 -5.65,45.9l-8.4 50.45 -21.02 16.82 -37.84 16.82 -29.42 12.61z"/>
   <g>
    <path class="fil1 str0" d="M1474.67 309.53c-3.01,-0.42 -6.08,-0.65 -9.11,-0.65 -3.06,0 -6.13,0.23 -9.08,0.65"/>
   </g>
   <g>
    <path class="fil1 str0" d="M861.87 309.53c-3.02,-0.42 -6.1,-0.65 -9.1,-0.65 -3.08,0 -6.09,0.23 -9.09,0.65"/>
   </g>
   <g>
    <path class="fil1 str0" d="M1474.67 309.53c98.25,13.78 197.68,20.73 297.3,20.73 95.11,0 190.16,-6.33 284.13,-18.91"/>
   </g>
   <g>
    <path class="fil1 str0" d="M262.23 311.35c93.99,12.58 188.97,18.91 284.13,18.91 99.57,0 199.07,-6.95 297.32,-20.73"/>
   </g>
   <g>
    <path class="fil1 str0" d="M861.87 309.53c98.24,13.78 197.68,20.73 297.3,20.73 99.55,0 199.05,-6.95 297.31,-20.73"/>
   </g>
   <g>
    <path class="fil1 str0" d="M2250.52 187.49c-0.87,-23.54 -22.01,-42.95 -49.56,-45.52"/>
   </g>
   <g>
    <path class="fil1 str0" d="M2200.96 141.97c-103.27,-13.28 -207.59,-19.96 -311.99,-19.96 -100.5,0 -200.94,6.19 -300.38,18.51"/>
   </g>
   <g>
    <path class="fil1 str0" d="M1574.66 140.74c-138.01,-12.46 -276.72,-18.73 -415.49,-18.73"/>
   </g>
   <g>
    <path class="fil1 str0" d="M1581.64 141.02c-63.56,40.49 -105.41,100.98 -116.08,167.86"/>
   </g>
   <g>
    <path class="fil1 str0" d="M1574.66 140.74c1.96,0.17 3.97,0.28 5.91,0.28 2.7,0 5.39,-0.2 8.02,-0.5"/>
   </g>
   <g>
    <path class="fil1 str0" d="M729.69 140.52c2.68,0.3 5.39,0.5 8.09,0.5 1.94,0 3.95,-0.11 5.88,-0.28"/>
   </g>
   <g>
    <path class="fil1 str0" d="M852.77 308.88c-10.73,-66.88 -52.52,-127.37 -116.13,-167.86"/>
   </g>
   <g>
    <path class="fil1 str0" d="M1159.17 122.01c-138.83,0 -277.54,6.27 -415.51,18.73"/>
   </g>
   <g>
    <line class="fil1 str0" x1="1461.86" y1="318.14" x2="1461.86" y2= "880.97" />
   </g>
   <g>
    <line class="fil1 str0" x1="844.55" y1="318.14" x2="844.55" y2= "880.97" />
   </g>
   <g>
    <line class="fil1 str0" x1="225.75" y1="740.26" x2="44.98" y2= "740.26" />
   </g>
   <g>
    <line class="fil1 str0" x1="242.28" y1="727.48" x2="257.34" y2= "318.14" />
   </g>
   <g>
    <path class="fil1 str0" d="M729.69 140.52c-99.45,-12.32 -199.82,-18.51 -300.33,-18.51 -104.39,0 -208.72,6.68 -311.97,19.96"/>
   </g>
   <g>
    <path class="fil1 str0" d="M217.63 737.29c12.29,0 22.34,-8.48 22.34,-18.93"/>
   </g>
   <g>
    <path class="fil1 str0" d="M40.78 267.15c0,-25.21 21.55,-47.65 32.75,-56.91 15.03,-12.4 33.53,-22.87 47.04,-22.87 12.93,0 25.61,3.65 35.83,10.38l0 0c45.62,29.97 81.93,69 105.83,113.6"/>
   </g>
   <g>
    <path class="fil2" d="M842.66 873.92l1316.02 0 0 10.72 -1316.02 0 0 0 0 -10.72zm-683.18 10.72l0.26 -10.72 -0.13 0 42.69 0 42.69 0 42.69 0 42.69 0 42.69 0 42.69 0 42.69 0 42.69 0 42.69 0 42.69 0 42.69 0 42.69 0 42.7 0 42.69 0 42.69 0 42.69 0 0 10.72 -42.69 0 -42.69 0 -42.69 0 -42.7 0 -42.69 0 -42.69 0 -42.69 0 -42.69 0 -42.69 0 -42.69 0 -42.69 0 -42.69 0 -42.69 0 -42.69 0 -42.69 0 -42.69 0 -0.13 0zm0.13 0l-0.13 0 0 0 0.13 0zm-120.94 -102.89l12.6 0.34 0.01 -0.28 0.24 4.71 0.52 4.63 0.78 4.57 1.02 4.49 1.29 4.41 1.51 4.34 1.76 4.23 1.98 4.15 2.2 4.03 2.42 3.95 2.63 3.82 2.83 3.71 3.02 3.58 3.23 3.46 3.4 3.32 3.58 3.19 3.76 3.04 3.9 2.89 4.08 2.73 4.23 2.57 4.36 2.41 4.5 2.23 4.64 2.06 4.76 1.87 4.87 1.68 5 1.49 5.09 1.29 5.19 1.09 5.29 0.87 5.39 0.66 5.44 0.43 5.55 0.21 -0.26 10.72 -6.15 -0.23 -6.08 -0.49 -5.99 -0.74 -5.89 -0.97 -5.79 -1.21 -5.69 -1.43 -5.56 -1.67 -5.43 -1.86 -5.32 -2.09 -5.16 -2.3 -5.02 -2.49 -4.86 -2.67 -4.69 -2.87 -4.54 -3.03 -4.36 -3.23 -4.18 -3.38 -3.98 -3.55 -3.78 -3.7 -3.59 -3.84 -3.38 -4 -3.15 -4.13 -2.93 -4.26 -2.7 -4.39 -2.46 -4.51 -2.2 -4.61 -1.96 -4.73 -1.69 -4.82 -1.43 -4.93 -1.14 -5.01 -0.86 -5.07 -0.58 -5.17 -0.28 -5.23 0.01 -0.28zm-0.01 0.28l0 -0.01 0.01 -0.27 -0.01 0.28zm14.3 -43.99l-1.69 44.05 -12.6 -0.34 1.69 -44.05 12.6 0.34zm24.74 -645.74l-4.73 123.66 -12.6 -0.34 4.73 -123.66 12.6 0.33 0 0.01zm0 -0.01l0 0.11 0 -0.1 0 -0.01zm-6.3 -0.16l0 0 0 0 0 0 -6.3 -0.16 6.3 0.16zm6.3 0.16l0 0.11 0 -0.1 0 -0.01zm42.9 -51.21l1.32 10.66 0 0 -2.29 0.25 -2.25 0.33 -2.23 0.43 -2.17 0.5 -2.11 0.58 -2.09 0.66 -2.04 0.74 -2 0.82 -1.94 0.87 -1.87 0.96 -1.83 1.02 -1.77 1.09 -1.71 1.15 -1.66 1.22 -1.58 1.27 -1.52 1.33 -1.44 1.38 -1.36 1.44 -1.31 1.49 -1.21 1.53 -1.15 1.6 -1.07 1.62 -0.97 1.67 -0.89 1.72 -0.81 1.75 -0.7 1.77 -0.62 1.82 -0.53 1.85 -0.42 1.88 -0.33 1.91 -0.22 1.93 -0.13 1.97 -12.6 -0.32 0.15 -2.45 0.28 -2.43 0.41 -2.39 0.54 -2.36 0.65 -2.33 0.78 -2.28 0.9 -2.25 1.01 -2.19 1.11 -2.14 1.23 -2.11 1.33 -2.04 1.43 -1.98 1.53 -1.93 1.63 -1.87 1.72 -1.8 1.82 -1.74 1.9 -1.67 1.98 -1.59 2.06 -1.52 2.15 -1.45 2.23 -1.37 2.29 -1.28 2.37 -1.2 2.44 -1.11 2.5 -1.02 2.56 -0.92 2.61 -0.84 2.69 -0.74 2.73 -0.62 2.77 -0.53 2.83 -0.43 2.87 -0.31 0 0zm0.66 5.33l0 0 0 0 0 0 -0.66 -5.33 0.66 5.33zm425.1 -24.41l0 10.72 0 0 -13.29 0.02 -13.29 0.05 -13.29 0.1 -13.28 0.13 -13.29 0.17 -13.29 0.2 -13.27 0.24 -13.29 0.28 -13.28 0.32 -13.29 0.35 -13.28 0.39 -13.28 0.42 -13.27 0.47 -13.28 0.5 -13.27 0.54 -13.28 0.58 -13.27 0.61 -13.26 0.66 -13.27 0.68 -13.25 0.73 -13.26 0.76 -13.25 0.79 -13.26 0.84 -13.25 0.87 -13.24 0.92 -13.24 0.94 -13.24 0.99 -13.24 1.02 -13.23 1.05 -13.22 1.1 -13.22 1.13 -13.22 1.17 -1.32 -10.66 13.26 -1.17 13.26 -1.13 13.26 -1.1 13.27 -1.07 13.28 -1.02 13.28 -0.99 13.28 -0.94 13.28 -0.92 13.29 -0.87 13.3 -0.84 13.29 -0.81 13.3 -0.76 13.31 -0.73 13.31 -0.68 13.3 -0.66 13.31 -0.61 13.32 -0.58 13.31 -0.54 13.32 -0.5 13.31 -0.47 13.32 -0.42 13.32 -0.41 13.33 -0.35 13.32 -0.32 13.33 -0.28 13.33 -0.24 13.33 -0.2 13.33 -0.17 13.32 -0.13 13.33 -0.1 13.33 -0.05 13.33 -0.02 0 0zm1225.61 10.72l-1225.61 0 0 -10.72 1225.61 0 0 0 0 10.72zm0 -5.36l0 0 0 0 0 0 0 -5.36 0 5.36zm425.76 13.72l-1.32 10.66 0 0 -13.22 -1.17 -13.23 -1.13 -13.23 -1.1 -13.23 -1.05 -13.23 -1.02 -13.24 -0.99 -13.25 -0.94 -13.24 -0.92 -13.25 -0.87 -13.25 -0.84 -13.25 -0.79 -13.27 -0.76 -13.25 -0.73 -13.26 -0.68 -13.27 -0.66 -13.26 -0.61 -13.28 -0.58 -13.27 -0.54 -13.27 -0.5 -13.28 -0.47 -13.28 -0.42 -13.28 -0.39 -13.28 -0.35 -13.28 -0.32 -13.28 -0.28 -13.28 -0.24 -13.29 -0.2 -13.28 -0.17 -13.29 -0.13 -13.29 -0.1 -13.29 -0.05 -13.29 -0.02 0 -10.72 13.33 0.02 13.33 0.05 13.33 0.1 13.33 0.13 13.32 0.17 13.33 0.2 13.34 0.24 13.32 0.28 13.32 0.32 13.32 0.35 13.32 0.41 13.32 0.42 13.32 0.47 13.31 0.5 13.31 0.54 13.32 0.58 13.3 0.61 13.31 0.66 13.3 0.68 13.31 0.73 13.29 0.76 13.31 0.81 13.29 0.84 13.29 0.87 13.28 0.92 13.29 0.94 13.28 0.99 13.27 1.02 13.27 1.07 13.27 1.1 13.27 1.13 13.26 1.17 0 0zm-0.66 5.33l0 0 0 0 0 0 0.66 -5.33 -0.66 5.33zm56.11 45.55l-12.6 0.34 0 -0.01 -0.13 -1.97 -0.22 -1.93 -0.33 -1.91 -0.42 -1.88 -0.53 -1.85 -0.62 -1.82 -0.71 -1.78 -0.79 -1.74 -0.9 -1.71 -0.98 -1.69 -1.05 -1.61 -1.14 -1.59 -1.23 -1.54 -1.3 -1.49 -1.36 -1.44 -1.44 -1.38 -1.52 -1.33 -1.58 -1.27 -1.66 -1.22 -1.71 -1.15 -1.76 -1.09 -1.83 -1.02 -1.87 -0.96 -1.94 -0.87 -2 -0.82 -2.03 -0.74 -2.09 -0.66 -2.11 -0.58 -2.18 -0.5 -2.22 -0.43 -2.23 -0.33 -2.29 -0.25 1.32 -10.66 2.87 0.31 2.83 0.43 2.76 0.53 2.72 0.62 2.69 0.74 2.61 0.84 2.57 0.92 2.48 1.02 2.44 1.11 2.37 1.2 2.29 1.28 2.24 1.37 2.13 1.45 2.06 1.52 1.98 1.59 1.9 1.67 1.82 1.74 1.72 1.8 1.62 1.87 1.53 1.92 1.44 1.99 1.33 2.05 1.22 2.09 1.12 2.15 1.01 2.2 0.89 2.24 0.78 2.28 0.65 2.33 0.54 2.36 0.41 2.39 0.28 2.43 0.15 2.45 0 -0.01zm-12.6 0.34l0 0.08 0 -0.09 0 0.01zm4.96 129.41l-4.96 -129.41 12.6 -0.34 4.96 129.41 -12.6 0.34zm21.51 560.38l-1.8 -46.96 12.6 -0.34 1.8 46.96 0.01 0.28 -12.61 0.06zm12.6 -0.34l0.01 0.27 0 0.01 -0.01 -0.28zm-6.3 0.17l0 0 0 0 0 0 6.31 0.11 -6.31 -0.11zm6.3 -0.17l0.01 0.27 0 0.01 -0.01 -0.28zm-120.84 102.89l-0.26 -10.72 5.55 -0.21 5.45 -0.43 5.39 -0.66 5.3 -0.87 5.19 -1.09 5.09 -1.29 5 -1.49 4.88 -1.68 4.75 -1.87 4.64 -2.06 4.51 -2.23 4.37 -2.41 4.22 -2.57 4.07 -2.73 3.91 -2.89 3.75 -3.04 3.58 -3.19 3.4 -3.32 3.21 -3.45 3.03 -3.59 2.84 -3.71 2.62 -3.82 2.42 -3.95 2.21 -4.04 1.98 -4.14 1.75 -4.23 1.52 -4.34 1.28 -4.41 1.03 -4.5 0.79 -4.56 0.51 -4.63 0.25 -4.71 12.62 0.22 -0.29 5.23 -0.57 5.17 -0.87 5.08 -1.15 5 -1.42 4.93 -1.7 4.82 -1.95 4.73 -2.22 4.62 -2.45 4.5 -2.7 4.39 -2.92 4.26 -3.16 4.13 -3.37 3.99 -3.59 3.85 -3.78 3.7 -3.98 3.55 -4.17 3.38 -4.37 3.23 -4.53 3.03 -4.7 2.87 -4.87 2.67 -5.01 2.49 -5.16 2.3 -5.31 2.09 -5.44 1.86 -5.56 1.67 -5.69 1.43 -5.79 1.21 -5.9 0.97 -5.99 0.74 -6.09 0.49 -6.15 0.23z"/>
   </g>
   <g>
    <path class="fil1 str0" d="M23.95 717.74c0,0.19 0,0.44 0,0.62 0,10.45 9.98,18.93 22.27,18.93"/>
   </g>
   <g>
    <path class="fil1 str0" d="M117.39 141.97c-27.55,2.57 -48.76,21.98 -49.64,45.52"/>
   </g>
   <g>
    <path class="fil1 str0" d="M19.88 717.44c-16.7,-135.96 -12.52,-278.02 20.9,-462.9"/>
   </g>
   <g>
    <line class="fil1 str0" x1="2096.5" y1="736.95" x2="2277.52" y2= "736.95" />
   </g>
   <g>
    <line class="fil1 str0" x1="2079.94" y1="724.17" x2="2064.86" y2= "314.83" />
   </g>
   <g>
    <path class="fil1 str0" d="M2104.63 733.97c-12.31,0 -22.37,-8.47 -22.37,-18.93"/>
   </g>
   <g>
    <path class="fil1 str0" d="M2281.73 263.84c0,-25.22 -21.59,-47.65 -32.81,-56.92 -15.04,-12.4 -33.56,-22.87 -47.1,-22.87 -12.94,0 -25.64,3.66 -35.88,10.38l0 0c-45.68,29.97 -82.04,69 -105.98,113.6"/>
   </g>
   <g>
    <path class="fil1 str0" d="M2298.58 714.42c0,0.2 0,0.44 0,0.62 0,10.46 -9.99,18.93 -22.3,18.93"/>
   </g>
   <g>
    <path class="fil1 str0" d="M2302.65 714.12c16.72,-135.95 12.54,-278.02 -20.92,-462.89"/>
   </g>
  </g>
 </g>
</symbol>

    <!-- Creator: CorelDRAW (Версия для OEM) -->
    <symbol xmlns="http://www.w3.org/2000/svg" xml:space="preserve" id='f-sofa'
        version="1.1"
        style="shape-rendering:geometricPrecision; text-rendering:geometricPrecision; image-rendering:optimizeQuality; fill-rule:evenodd; clip-rule:evenodd"
        viewBox="0 0 76 64"
        xmlns:xlink="http://www.w3.org/1999/xlink"
        xmlns:xodm="http://www.corel.com/coreldraw/odm/2003">
         <defs>
  <style type="text/css">
   <![CDATA[
    .str0 {stroke:#64401F;stroke-width:1;stroke-miterlimit:10}
    .str1 {stroke:#64401F;stroke-width:1;stroke-miterlimit:10}
    .str2 {stroke:#64401F;stroke-width:1;stroke-miterlimit:10}
    .fil1 {fill:none;fill-rule:nonzero}
    .fil0 {fill:white}
   ]]>
  </style>
 </defs>

 <g id="Слой_x0020_1">
  <metadata id="CorelCorpID_0Corel-Layer"/>
  <rect class="fil0" x="0.559" y="0.626"/>
  <path class="fil1 str0" d="M4.916 17.695c-1.054,4.332 -1.589,8.775 -1.589,13.238 0,6.033 0.977,12.026 2.884,17.75"/>
  <path class="fil1 str0" d="M13.013 58.517c-0.365,-0.138 -0.754,-0.211 -1.142,-0.211 -0.427,0 -0.85,0.084 -1.238,0.249"/>
  <path class="fil1 str0" d="M9.537 57.297c2.496,1.158 5.218,1.759 7.97,1.759 1.434,0 2.864,-0.166 4.261,-0.485"/>
  <path class="fil1 str0" d="M5.616 58.494c0.811,0.365 1.687,0.554 2.571,0.554 0.842,0 1.673,-0.17 2.442,-0.493"/>
  <path class="fil1 str0" d="M5.619 58.494c-0.396,-0.173 -0.827,-0.269 -1.257,-0.269 -0.388,0 -0.773,0.076 -1.131,0.219"/>
  <path class="fil1 str0" d="M18.734 4.311c-1.576,-0.269 -3.172,-0.403 -4.767,-0.403 -2.369,0 -4.726,0.296 -7.018,0.876"/>
  <path class="fil1 str0" d="M16.42 20.146c0.003,-0.135 0.007,-0.277 0.007,-0.412 0,-2.9 -1.158,-5.685 -3.206,-7.74"/>
  <path class="fil1 str0" d="M18.991 29.14c1.689,-3.5 2.569,-7.34 2.569,-11.225 0,-1.316 -0.104,-2.628 -0.303,-3.928"/>
  <path class="fil1 str0" d="M23.329 4.457c-1.457,-0.099 -2.923,-0.146 -4.388,-0.146 -0.069,0 -0.138,0 -0.207,0"/>
  <path class="fil1 str0" d="M23.329 4.454c-1.462,2.192 -2.242,4.771 -2.242,7.405 0,0.713 0.057,1.428 0.17,2.132"/>
  <path class="fil1 str0" d="M3.285 3.857c-0.204,2.086 -0.303,4.182 -0.303,6.279 0,3.709 0.318,7.409 0.945,11.065"/>
  <path class="fil1 str0" d="M9.744 4.223c-0.592,-0.131 -1.199,-0.2 -1.803,-0.2 -0.726,0 -1.449,0.096 -2.153,0.288"/>
  <path class="fil1 str0" d="M3.285 3.857c0.503,0.358 1.107,0.554 1.727,0.554 0.261,0 0.523,-0.035 0.776,-0.103"/>
  <path class="fil1 str0" d="M4.558 42.594c-1.315,2.619 -1.999,5.516 -1.999,8.447 0,1.689 0.227,3.371 0.672,4.995"/>
  <path class="fil1 str0" d="M13.863 48.945c0.285,-1.689 0.426,-3.4 0.426,-5.113 0,-3.101 -0.469,-6.182 -1.384,-9.14"/>
  <path class="fil1 str0" d="M20.202 45.799c1.015,-3.244 1.531,-6.629 1.531,-10.03 0,-3.401 -0.516,-6.787 -1.531,-10.029"/>
  <path class="fil1 str0" d="M21.184 42.832c-0.324,1.866 -0.486,3.759 -0.486,5.655 0,2.713 0.335,5.417 0.992,8.045"/>
  <line class="fil1 str0" x1="75.279" y1="63.348" x2="75.279" y2= "0.582" />
  <path class="fil1 str0" d="M41.127 2.73c-5.491,14.458 -10.323,29.158 -14.476,44.056"/>
  <path class="fil1 str0" d="M30.53 2.95c-3.922,19.262 -7.044,38.682 -9.343,58.205"/>
  <line class="fil1 str0" x1="73.433" y1="63.348" x2="73.433" y2= "0.582" />
  <line class="fil1 str0" x1="0.513" y1="63.348" x2="0.513" y2= "0.582" />
  <line class="fil1 str0" x1="1.436" y1="63.348" x2="1.436" y2= "0.582" />
  <line class="fil1 str0" x1="0.513" y1="63.348" x2="75.279" y2= "63.348" />
  <path class="fil1 str0" d="M22.275 61.814c1.622,0.069 3.245,0.103 4.867,0.103 6.16,0 12.312,-0.511 18.391,-1.527"/>
  <path class="fil1 str0" d="M35.548 61.54c5.163,0.385 10.343,0.581 15.526,0.581 3.875,0 7.759,-0.108 11.63,-0.327"/>
  <path class="fil1 str0" d="M43.268 46.313c-8.009,3.633 -15.164,8.915 -20.993,15.496"/>
  <path class="fil1 str0" d="M52.554 61.205c4.287,0.413 8.59,0.62 12.896,0.62 1.902,0 3.806,-0.042 5.71,-0.122"/>
  <path class="fil1 str0" d="M73.016 51.369c0.035,-1.166 0.055,-2.336 0.055,-3.504 0,-6.541 -0.543,-13.077 -1.619,-19.528"/>
  <path class="fil1 str0" d="M71.16 61.703c1.025,0 1.856,-0.836 1.856,-1.859"/>
  <path class="fil1 str0" d="M14.309 61.814c-3.546,-0.073 -7.094,-0.111 -10.644,-0.111 -0.265,0 -0.534,0 -0.804,0"/>
  <path class="fil1 str0" d="M22.275 61.809c3.718,-10.81 6.613,-21.893 8.651,-33.146"/>
  <path class="fil1 str0" d="M32.064 46.456c-3.161,3.913 -5.944,8.125 -8.297,12.572"/>
  <path class="fil1 str0" d="M22.275 61.814c3.533,-0.893 6.963,-2.162 10.227,-3.774"/>
  <path class="fil1 str0" d="M14.309 61.809c0.549,0.047 1.099,0.074 1.649,0.074 1.764,0 3.526,-0.246 5.226,-0.728"/>
  <path class="fil1 str0" d="M21.118 62.11c0.569,-0.238 0.946,-0.8 0.946,-1.424 0,-0.038 -0.004,-0.08 -0.008,-0.118"/>
  <path class="fil1 str0" d="M19.419 61.567c0.192,0.655 0.796,1.105 1.476,1.105 0.584,0 1.123,-0.335 1.38,-0.863"/>
  <path class="fil1 str0" d="M19.829 61.487c0.147,0.176 0.366,0.284 0.597,0.284 0.365,0 0.685,-0.261 0.758,-0.616"/>
  <path class="fil1 str0" d="M1.378 60.959c0.35,0.466 0.899,0.744 1.483,0.744"/>
  <line class="fil1 str0" x1="42.05" y1="1.504" x2="38.358" y2= "1.504" />
  <line class="fil1 str0" x1="0.513" y1="0.582" x2="75.279" y2= "0.582" />
  <path class="fil1 str0" d="M38.251 0.949c-0.078,-0.003 -0.158,-0.008 -0.239,-0.008 -0.884,0 -1.745,0.297 -2.449,0.839"/>
  <path class="fil1 str0" d="M38.424 0.949c-0.977,-0.227 -1.981,-0.342 -2.984,-0.342 -0.992,0 -1.98,0.112 -2.941,0.334"/>
  <path class="fil1 str0" d="M39.696 2.192c-1.365,2.189 -2.364,4.59 -2.949,7.098"/>
  <path class="fil1 str0" d="M71.16 1.877c-1.766,-0.166 -3.538,-0.247 -5.311,-0.247 -3.752,0 -7.497,0.37 -11.173,1.108"/>
  <path class="fil1 str0" d="M73.016 3.734c0,-1.023 -0.831,-1.857 -1.856,-1.857"/>
  <path class="fil1 str0" d="M60.948 1.88c-2.488,-0.212 -4.988,-0.315 -7.482,-0.315 -4.077,0 -8.149,0.28 -12.186,0.838"/>
  <path class="fil1 str0" d="M50.616 2.876c0.538,0.07 1.08,0.104 1.622,0.104 0.816,0 1.634,-0.081 2.438,-0.242"/>
  <line class="fil1 str1" x1="43.374" y1="1.527" x2="45.22" y2= "2.45" />
  <path class="fil1 str0" d="M42.061 1.064c-0.204,-0.076 -0.423,-0.115 -0.642,-0.115"/>
  <path class="fil1 str0" d="M43.522 1.6c-0.204,-0.073 -0.423,-0.112 -0.642,-0.112 -0.789,0 -1.492,0.496 -1.753,1.242"/>
  <path class="fil1 str0" d="M42.061 1.064c-0.204,-0.076 -0.423,-0.115 -0.642,-0.115"/>
  <path class="fil1 str0" d="M41.146 1.384c-0.007,0 -0.019,0 -0.031,0 -0.58,0 -1.122,0.307 -1.419,0.808"/>
  <line class="fil1 str2" x1="25.906" y1="1.891" x2="2.831" y2= "1.891" />
  <path class="fil1 str0" d="M31.826 2.554c-0.458,0.989 -0.73,2.054 -0.8,3.143"/>
  <path class="fil1 str0" d="M32.499 0.938c-0.997,0.227 -1.765,1.015 -1.969,2.012"/>
  <path class="fil1 str0" d="M34.425 1.192c-1.011,0.081 -1.953,0.572 -2.599,1.362"/>
  <path class="fil1 str0" d="M30.676 2.473c-1.622,-0.374 -3.287,-0.578 -4.952,-0.596"/>
  <path class="fil1 str0" d="M2.861 1.877c-0.584,0 -1.133,0.277 -1.483,0.742"/>
  <path class="fil1 str0" d="M3.231 58.444c0.112,-0.389 0.166,-0.797 0.166,-1.205 0,-0.403 -0.054,-0.811 -0.166,-1.203"/>
 </g>
</symbol>

    <symbol xmlns="http://www.w3.org/2000/svg" xml:space="preserve" id="f-table"
        version="1.1"
        style="shape-rendering:geometricPrecision; text-rendering:geometricPrecision; image-rendering:optimizeQuality; fill-rule:evenodd; clip-rule:evenodd"
        viewBox="0 0 76 64"
        xmlns:xlink="http://www.w3.org/1999/xlink"
        xmlns:xodm="http://www.corel.com/coreldraw/odm/2003">
 <defs>

 </defs>
 <g id="Слой_x0020_1">
  <metadata id="CorelCorpID_0Corel-Layer"/>
  <rect class="fil0" x="0.559" y="0.626"/>
  <path class="fil1 str0" d="M4.916 17.695c-1.054,4.332 -1.589,8.775 -1.589,13.238 0,6.033 0.977,12.026 2.884,17.75"/>
  <path class="fil1 str0" d="M13.013 58.517c-0.365,-0.138 -0.754,-0.211 -1.142,-0.211 -0.427,0 -0.85,0.084 -1.238,0.249"/>
  <path class="fil1 str0" d="M9.537 57.297c2.496,1.158 5.218,1.759 7.97,1.759 1.434,0 2.864,-0.166 4.261,-0.485"/>
  <path class="fil1 str0" d="M5.616 58.494c0.811,0.365 1.687,0.554 2.571,0.554 0.842,0 1.673,-0.17 2.442,-0.493"/>
  <path class="fil1 str0" d="M5.619 58.494c-0.396,-0.173 -0.827,-0.269 -1.257,-0.269 -0.388,0 -0.773,0.076 -1.131,0.219"/>
  <path class="fil1 str0" d="M18.734 4.311c-1.576,-0.269 -3.172,-0.403 -4.767,-0.403 -2.369,0 -4.726,0.296 -7.018,0.876"/>
  <path class="fil1 str0" d="M16.42 20.146c0.003,-0.135 0.007,-0.277 0.007,-0.412 0,-2.9 -1.158,-5.685 -3.206,-7.74"/>
  <path class="fil1 str0" d="M18.991 29.14c1.689,-3.5 2.569,-7.34 2.569,-11.225 0,-1.316 -0.104,-2.628 -0.303,-3.928"/>
  <path class="fil1 str0" d="M23.329 4.457c-1.457,-0.099 -2.923,-0.146 -4.388,-0.146 -0.069,0 -0.138,0 -0.207,0"/>
  <path class="fil1 str0" d="M23.329 4.454c-1.462,2.192 -2.242,4.771 -2.242,7.405 0,0.713 0.057,1.428 0.17,2.132"/>
  <path class="fil1 str0" d="M3.285 3.857c-0.204,2.086 -0.303,4.182 -0.303,6.279 0,3.709 0.318,7.409 0.945,11.065"/>
  <path class="fil1 str0" d="M9.744 4.223c-0.592,-0.131 -1.199,-0.2 -1.803,-0.2 -0.726,0 -1.449,0.096 -2.153,0.288"/>
  <path class="fil1 str0" d="M3.285 3.857c0.503,0.358 1.107,0.554 1.727,0.554 0.261,0 0.523,-0.035 0.776,-0.103"/>
  <path class="fil1 str0" d="M4.558 42.594c-1.315,2.619 -1.999,5.516 -1.999,8.447 0,1.689 0.227,3.371 0.672,4.995"/>
  <path class="fil1 str0" d="M13.863 48.945c0.285,-1.689 0.426,-3.4 0.426,-5.113 0,-3.101 -0.469,-6.182 -1.384,-9.14"/>
  <path class="fil1 str0" d="M20.202 45.799c1.015,-3.244 1.531,-6.629 1.531,-10.03 0,-3.401 -0.516,-6.787 -1.531,-10.029"/>
  <path class="fil1 str0" d="M21.184 42.832c-0.324,1.866 -0.486,3.759 -0.486,5.655 0,2.713 0.335,5.417 0.992,8.045"/>
  <line class="fil1 str0" x1="75.279" y1="63.348" x2="75.279" y2= "0.582" />
  <path class="fil1 str0" d="M41.127 2.73c-5.491,14.458 -10.323,29.158 -14.476,44.056"/>
  <path class="fil1 str0" d="M30.53 2.95c-3.922,19.262 -7.044,38.682 -9.343,58.205"/>
  <line class="fil1 str0" x1="73.433" y1="63.348" x2="73.433" y2= "0.582" />
  <line class="fil1 str0" x1="0.513" y1="63.348" x2="0.513" y2= "0.582" />
  <line class="fil1 str0" x1="1.436" y1="63.348" x2="1.436" y2= "0.582" />
  <line class="fil1 str0" x1="0.513" y1="63.348" x2="75.279" y2= "63.348" />
  <path class="fil1 str0" d="M22.275 61.814c1.622,0.069 3.245,0.103 4.867,0.103 6.16,0 12.312,-0.511 18.391,-1.527"/>
  <path class="fil1 str0" d="M35.548 61.54c5.163,0.385 10.343,0.581 15.526,0.581 3.875,0 7.759,-0.108 11.63,-0.327"/>
  <path class="fil1 str0" d="M43.268 46.313c-8.009,3.633 -15.164,8.915 -20.993,15.496"/>
  <path class="fil1 str0" d="M52.554 61.205c4.287,0.413 8.59,0.62 12.896,0.62 1.902,0 3.806,-0.042 5.71,-0.122"/>
  <path class="fil1 str0" d="M73.016 51.369c0.035,-1.166 0.055,-2.336 0.055,-3.504 0,-6.541 -0.543,-13.077 -1.619,-19.528"/>
  <path class="fil1 str0" d="M71.16 61.703c1.025,0 1.856,-0.836 1.856,-1.859"/>
  <path class="fil1 str0" d="M14.309 61.814c-3.546,-0.073 -7.094,-0.111 -10.644,-0.111 -0.265,0 -0.534,0 -0.804,0"/>
  <path class="fil1 str0" d="M22.275 61.809c3.718,-10.81 6.613,-21.893 8.651,-33.146"/>
  <path class="fil1 str0" d="M32.064 46.456c-3.161,3.913 -5.944,8.125 -8.297,12.572"/>
  <path class="fil1 str0" d="M22.275 61.814c3.533,-0.893 6.963,-2.162 10.227,-3.774"/>
  <path class="fil1 str0" d="M14.309 61.809c0.549,0.047 1.099,0.074 1.649,0.074 1.764,0 3.526,-0.246 5.226,-0.728"/>
  <path class="fil1 str0" d="M21.118 62.11c0.569,-0.238 0.946,-0.8 0.946,-1.424 0,-0.038 -0.004,-0.08 -0.008,-0.118"/>
  <path class="fil1 str0" d="M19.419 61.567c0.192,0.655 0.796,1.105 1.476,1.105 0.584,0 1.123,-0.335 1.38,-0.863"/>
  <path class="fil1 str0" d="M19.829 61.487c0.147,0.176 0.366,0.284 0.597,0.284 0.365,0 0.685,-0.261 0.758,-0.616"/>
  <path class="fil1 str0" d="M1.378 60.959c0.35,0.466 0.899,0.744 1.483,0.744"/>
  <line class="fil1 str0" x1="42.05" y1="1.504" x2="38.358" y2= "1.504" />
  <line class="fil1 str0" x1="0.513" y1="0.582" x2="75.279" y2= "0.582" />
  <path class="fil1 str0" d="M38.251 0.949c-0.078,-0.003 -0.158,-0.008 -0.239,-0.008 -0.884,0 -1.745,0.297 -2.449,0.839"/>
  <path class="fil1 str0" d="M38.424 0.949c-0.977,-0.227 -1.981,-0.342 -2.984,-0.342 -0.992,0 -1.98,0.112 -2.941,0.334"/>
  <path class="fil1 str0" d="M39.696 2.192c-1.365,2.189 -2.364,4.59 -2.949,7.098"/>
  <path class="fil1 str0" d="M71.16 1.877c-1.766,-0.166 -3.538,-0.247 -5.311,-0.247 -3.752,0 -7.497,0.37 -11.173,1.108"/>
  <path class="fil1 str0" d="M73.016 3.734c0,-1.023 -0.831,-1.857 -1.856,-1.857"/>
  <path class="fil1 str0" d="M60.948 1.88c-2.488,-0.212 -4.988,-0.315 -7.482,-0.315 -4.077,0 -8.149,0.28 -12.186,0.838"/>
  <path class="fil1 str0" d="M50.616 2.876c0.538,0.07 1.08,0.104 1.622,0.104 0.816,0 1.634,-0.081 2.438,-0.242"/>
  <line class="fil1 str1" x1="43.374" y1="1.527" x2="45.22" y2= "2.45" />
  <path class="fil1 str0" d="M42.061 1.064c-0.204,-0.076 -0.423,-0.115 -0.642,-0.115"/>
  <path class="fil1 str0" d="M43.522 1.6c-0.204,-0.073 -0.423,-0.112 -0.642,-0.112 -0.789,0 -1.492,0.496 -1.753,1.242"/>
  <path class="fil1 str0" d="M42.061 1.064c-0.204,-0.076 -0.423,-0.115 -0.642,-0.115"/>
  <path class="fil1 str0" d="M41.146 1.384c-0.007,0 -0.019,0 -0.031,0 -0.58,0 -1.122,0.307 -1.419,0.808"/>
  <line class="fil1 str2" x1="25.906" y1="1.891" x2="2.831" y2= "1.891" />
  <path class="fil1 str0" d="M31.826 2.554c-0.458,0.989 -0.73,2.054 -0.8,3.143"/>
  <path class="fil1 str0" d="M32.499 0.938c-0.997,0.227 -1.765,1.015 -1.969,2.012"/>
  <path class="fil1 str0" d="M34.425 1.192c-1.011,0.081 -1.953,0.572 -2.599,1.362"/>
  <path class="fil1 str0" d="M30.676 2.473c-1.622,-0.374 -3.287,-0.578 -4.952,-0.596"/>
  <path class="fil1 str0" d="M2.861 1.877c-0.584,0 -1.133,0.277 -1.483,0.742"/>
  <path class="fil1 str0" d="M3.231 58.444c0.112,-0.389 0.166,-0.797 0.166,-1.205 0,-0.403 -0.054,-0.811 -0.166,-1.203"/>
 </g>
</symbol>


</svg>